<?xml version="1.0" encoding="UTF-8" standalone="no"?>
<svg
   xmlns:dc="http://purl.org/dc/elements/1.1/"
   xmlns:cc="http://creativecommons.org/ns#"
   xmlns:rdf="http://www.w3.org/1999/02/22-rdf-syntax-ns#"
   xmlns:svg="http://www.w3.org/2000/svg"
   xmlns="http://www.w3.org/2000/svg"
   version="1.1"
   id="svg2"
   xml:space="preserve"
   width="498.92987"
   height="197.49992"
   viewBox="0 0 498.92987 197.49993"><metadata
     id="metadata8"><rdf:RDF><cc:Work
         rdf:about=""><dc:format>image/svg+xml</dc:format><dc:type
           rdf:resource="http://purl.org/dc/dcmitype/StillImage" /><dc:title></dc:title></cc:Work></rdf:RDF></metadata><defs
     id="defs6" /><g
     id="g10"
     transform="matrix(1.2839646,0,0,-1.2839646,5,192.49992)"><g
       id="g12"
       transform="scale(0.1)"><path
         d="m 0,730.195 c 0,403.215 326.957,730.125 730.199,730.125 403.241,0 730.151,-326.91 730.151,-730.125 C 1460.35,326.93 1133.44,0 730.199,0 326.957,0 0,326.93 0,730.195 v 0"
         style="fill:#89ba17;fill-opacity:1;fill-rule:nonzero;stroke:none"
         id="path14" /><path
         d="M 216.82,742.289 H 398.641 V 694.512 H 273.691 V 634.777 H 381.973 V 590.578 H 273.691 V 483.703 H 216.82 Z m 857.48,234.328 c 121.94,0 169.22,-77.949 169.22,-157.992 0,-80.047 -47.28,-158.047 -169.22,-158.047 H 961.23 V 484.855 H 860.027 v 348.5 h -1.379 L 738.77,484.855 h -82.922 l -119.93,345.083 h -1.332 V 484.855 H 433.828 V 587.93 h 51.02 v 44.601 h -51.02 v 62.196 h 68.317 v 48.609 h -68.317 v 233.281 h 151.434 l 114.426,-338.16 h 1.382 l 108.254,338.16 z M 959.559,744.902 h 83.591 c 49.98,0 94.57,11.106 94.57,73.879 0,62.774 -44.59,73.797 -94.57,73.797 h -83.591 v -147.676 0"
         style="fill:#ffffff;fill-opacity:1;fill-rule:nonzero;stroke:none"
         id="path16" /><path
         d="m 1687.48,425.25 h 17.62 v 41.02 h 12.6 c 21.02,0 39.61,4.472 39.61,29.386 0,21.981 -17.33,28.692 -36.52,28.692 h -33.31 z m 17.62,56.117 v 27.883 h 12.6 c 9.53,0 21.16,-1.691 21.16,-13.867 0,-13.457 -13.03,-14.016 -23.11,-14.016 z m 111.74,-56.117 h 17.61 v 43.676 h 46.36 V 425.25 h 17.63 v 99.098 h -17.63 v -39.485 h -46.36 v 39.485 h -17.61 z m 136.49,0 h 19.74 l 8.95,22.68 h 42.99 l 9.24,-22.68 h 20.15 l -42.68,99.098 h -15.27 z m 34.73,37.789 15.52,40.313 15.27,-40.313 z m 121.23,-37.789 h 17.63 v 41.996 h 12.89 l 22.97,-41.996 h 21.25 l -26.3,43.813 c 14.7,2.101 22.95,12.589 22.95,26.875 0,22.265 -17.9,28.41 -36.95,28.41 h -34.44 z m 17.63,57.094 v 26.906 h 15.27 c 9.1,0 20.02,-1.398 20.02,-13.176 0,-12.89 -11.61,-13.73 -21.56,-13.73 z m 114.82,-57.094 h 16.78 v 82.301 h 0.28 l 30.11,-82.301 h 12.32 l 30.11,82.301 h 0.27 V 425.25 h 16.78 v 99.098 h -26.57 l -26.75,-69.426 -26.48,69.426 h -26.85 z m 161.97,0 h 19.74 l 8.95,22.68 h 42.99 l 9.24,-22.68 h 20.15 l -42.7,99.098 h -15.26 z m 34.72,37.789 15.53,40.313 15.26,-40.313 z m 121.24,-37.789 h 17.61 v 48.707 h 1 l 42.97,-48.707 h 24.78 l -49.42,53.324 46.35,45.774 h -23.81 l -41.03,-41.993 h -0.84 v 41.993 h -17.61 z m 134.4,49.125 c 0,-30.934 21.83,-51.645 52.35,-51.645 30.95,0.551 52.77,21.27 52.77,52.211 0,31.778 -21.82,52.493 -52.77,51.926 -30.52,0 -52.35,-20.703 -52.35,-52.492 m 18.47,1.125 c 0,19.746 13.57,35.43 34.02,35.43 20.59,0 34.17,-15.684 34.17,-35.43 0,-21.141 -13.58,-36.828 -34.17,-36.828 -20.45,0 -34.02,15.687 -34.02,36.828 m 147.29,-50.25 h 59.76 v 15.941 h -42.14 v 83.157 h -17.62 z m 111.16,49.125 c 0,-30.934 21.82,-51.645 52.35,-51.645 30.95,0.551 52.77,21.27 52.77,52.211 0,31.778 -21.82,52.493 -52.77,51.926 -30.53,0 -52.35,-20.703 -52.35,-52.492 m 18.46,1.125 c 0,19.746 13.59,35.43 34.03,35.43 20.59,0 34.18,-15.684 34.18,-35.43 0,-21.141 -13.59,-36.828 -34.18,-36.828 -20.44,0 -34.03,15.687 -34.03,36.828 m 235.34,7.684 h -37.93 v -15.938 h 20.31 v -23.387 c -6.16,-3.507 -14.28,-5.187 -23.25,-5.187 -20.45,0 -34.03,15.687 -34.03,36.828 0,19.734 13.58,35.43 34.03,35.43 9.95,0 19.61,-3.496 25.91,-9.668 l 13,13.164 c -10.34,9.226 -23.92,12.441 -39.05,12.441 -30.53,0 -52.35,-20.703 -52.35,-52.492 0,-30.934 21.82,-51.645 52.35,-51.645 15.26,0 28.98,3.348 41.01,9.782 z m 64.28,-57.934 h 17.62 v 99.098 h -17.62 z m 83.16,0 h 68.16 v 15.941 h -50.54 v 26.895 h 45.5 v 15.937 h -45.5 v 24.387 h 48.02 v 15.938 h -65.64 V 425.25"
         style="fill:#89ba17;fill-opacity:1;fill-rule:nonzero;stroke:none"
         id="path18" /><path
         d="m 1687.48,593.242 h 17.62 v 41.164 h 43.68 v 15.938 h -43.68 v 26.062 h 46.34 v 15.938 h -63.96 z m 199.02,99.102 h -17.62 v -62.149 c 0,-9.804 -5.33,-22.683 -22.28,-22.683 -16.93,0 -22.26,12.879 -22.26,22.683 v 62.149 h -17.62 v -62.715 c 0,-23.934 17.2,-38.906 39.88,-38.906 22.69,0 39.9,14.972 39.9,38.906 z m -65.09,16.816 c 0,-5.457 4.49,-10.066 10.64,-10.066 6.15,0 10.91,4.336 10.91,10.066 0,5.735 -4.76,10.07 -10.91,10.07 -6.15,0 -10.64,-4.621 -10.64,-10.07 m 28.85,0 c 0,-5.457 4.48,-10.066 10.63,-10.066 6.15,0 10.91,4.336 10.91,10.066 0,5.735 -4.76,10.07 -10.91,10.07 -6.15,0 -10.63,-4.621 -10.63,-10.07 m 99.31,-115.918 h 17.63 v 42.004 h 12.88 l 22.97,-42.004 h 21.27 l -26.31,43.821 c 14.69,2.097 22.95,12.597 22.95,26.875 0,22.265 -17.91,28.406 -36.96,28.406 h -34.43 z m 17.63,57.102 v 26.902 h 15.25 c 9.11,0 20.05,-1.394 20.05,-13.172 0,-12.89 -11.63,-13.73 -21.58,-13.73 z m 170.95,-57.102 h 16.78 v 82.305 h 0.27 l 30.11,-82.305 h 12.33 l 30.1,82.305 h 0.29 v -82.305 h 16.78 v 99.102 h -26.59 l -26.74,-69.414 -26.46,69.414 h -26.87 z m 164.86,49.133 c 0,-30.937 21.82,-51.652 52.35,-51.652 30.96,0.558 52.77,21.269 52.77,52.218 0,31.786 -21.81,52.489 -52.77,51.922 -30.53,0 -52.35,-20.691 -52.35,-52.488 m 18.46,1.121 c 0,19.746 13.58,35.43 34.03,35.43 20.58,0 34.18,-15.684 34.18,-35.43 0,-21.133 -13.6,-36.824 -34.18,-36.824 -20.45,0 -34.03,15.691 -34.03,36.824 m 144.65,-50.254 h 59.77 v 15.949 h -42.15 v 83.153 h -17.62 z m 113.96,0 h 68.17 v 15.949 h -50.55 v 26.895 h 45.51 v 15.945 h -45.51 v 24.375 h 48.03 v 15.938 h -65.65 z m 126.83,0 h 17.64 v 48.711 h 0.98 l 42.98,-48.711 h 24.78 l -49.42,53.332 46.34,45.77 h -23.81 l -41.01,-41.981 h -0.84 v 41.981 h -17.64 z m 216.58,99.102 h -17.63 v -62.149 c 0,-9.804 -5.32,-22.683 -22.27,-22.683 -16.95,0 -22.27,12.879 -22.27,22.683 v 62.149 h -17.62 v -62.715 c 0,-23.934 17.21,-38.906 39.89,-38.906 22.69,0 39.9,14.972 39.9,38.906 z m 63,-99.102 h 59.77 v 15.949 h -42.14 v 83.153 h -17.63 z m 102.89,0 h 19.75 l 8.96,22.688 h 42.98 l 9.23,-22.688 h 20.17 l -42.7,99.102 h -15.26 z m 34.73,37.793 15.54,40.313 15.26,-40.313 z m 118.9,-37.793 h 17.61 v 42.004 h 12.9 l 22.96,-42.004 h 21.26 l -26.29,43.821 c 14.68,2.097 22.93,12.597 22.93,26.875 0,22.265 -17.9,28.406 -36.94,28.406 h -34.43 z m 17.61,57.102 v 26.902 h 15.28 c 9.1,0 20.03,-1.394 20.03,-13.172 0,-12.89 -11.63,-13.73 -21.57,-13.73 z m 111.87,-57.102 h 68.16 v 15.949 h -50.54 v 26.895 h 45.5 v 15.945 h -45.5 v 24.375 h 48.02 v 15.938 h -65.64 v -99.102"
         style="fill:#89ba17;fill-opacity:1;fill-rule:nonzero;stroke:none"
         id="path20" /><path
         d="m 1687.48,761.246 h 17.62 v 41.16 h 43.68 v 15.942 h -43.68 v 26.058 h 46.34 v 15.942 h -63.96 z m 106.77,49.133 c 0,-30.945 21.82,-51.652 52.35,-51.652 30.96,0.554 52.77,21.265 52.77,52.214 0,31.786 -21.81,52.493 -52.77,51.926 -30.53,0 -52.35,-20.699 -52.35,-52.488 m 18.46,1.121 c 0,19.746 13.6,35.426 34.05,35.426 20.57,0 34.16,-15.68 34.16,-35.426 0,-21.145 -13.59,-36.832 -34.16,-36.832 -20.45,0 -34.05,15.687 -34.05,36.832 m 136.4,-50.254 h 17.62 v 42 h 12.89 l 22.97,-42 h 21.26 l -26.3,43.817 c 14.69,2.101 22.94,12.589 22.94,26.875 0,22.265 -17.9,28.41 -36.95,28.41 h -34.43 z m 17.62,57.102 v 26.898 H 1982 c 9.1,0 20.03,-1.398 20.03,-13.172 0,-12.886 -11.63,-13.726 -21.57,-13.726 z m 164.81,34.308 c -7.69,7.282 -18.04,10.211 -28.42,10.211 -18.35,0 -36.52,-9.508 -36.52,-29.941 0,-35.426 47.04,-22.969 47.04,-44.668 0,-9.106 -9.26,-13.59 -17.37,-13.59 -7.85,0 -15.26,3.781 -19.6,10.367 l -13.29,-12.887 c 8.11,-9.64 20.14,-13.421 32.47,-13.421 19.47,0 36.25,10.339 36.25,31.628 0,35.29 -47.04,23.95 -47.04,43.833 0,9.105 8.12,12.738 16.25,12.738 6.86,0 13.59,-2.52 17.36,-7.832 z m 131.98,-5.449 c -9.81,11.332 -21.28,15.66 -34.73,15.66 -30.52,0 -52.35,-20.699 -52.35,-52.488 0,-30.945 21.83,-51.652 52.35,-51.652 14.57,0 28,5.312 36.97,17.621 l -14.57,10.367 c -6.57,-8.402 -14.27,-12.047 -22.25,-12.047 -20.45,0 -34.03,15.687 -34.03,36.832 0,19.746 13.58,35.426 34.03,35.426 6.86,0 13.58,-2.102 20.85,-9.801 z m 46.87,-85.961 h 17.63 v 43.684 h 46.35 v -43.684 h 17.62 v 99.102 h -17.62 v -39.485 h -46.35 v 39.485 h -17.63 z m 215.78,99.102 h -17.63 v -62.153 c 0,-9.8 -5.32,-22.687 -22.26,-22.687 -16.94,0 -22.27,12.887 -22.27,22.687 v 62.153 h -17.62 v -62.719 c 0,-23.938 17.2,-38.902 39.89,-38.902 22.68,0 39.89,14.964 39.89,38.902 z m 54.39,-99.102 h 17.62 v 76.008 h 0.29 l 49.01,-76.008 h 22.37 v 99.102 h -17.61 v -73.621 h -0.28 l -48.03,73.621 h -23.37 z m 232.39,57.942 h -37.92 v -15.942 h 20.3 v -23.387 c -6.16,-3.511 -14.29,-5.191 -23.24,-5.191 -20.45,0 -34.04,15.687 -34.04,36.832 0,19.73 13.59,35.426 34.04,35.426 9.93,0 19.6,-3.496 25.9,-9.664 l 13.01,13.16 c -10.36,9.23 -23.94,12.445 -39.06,12.445 -30.53,0 -52.35,-20.699 -52.35,-52.488 0,-30.945 21.82,-51.652 52.35,-51.652 15.28,0 28.99,3.359 41.01,9.789 z m 113.99,33.468 c -7.69,7.282 -18.03,10.211 -28.41,10.211 -18.35,0 -36.53,-9.508 -36.53,-29.941 0,-35.426 47.04,-22.969 47.04,-44.668 0,-9.106 -9.25,-13.59 -17.37,-13.59 -7.84,0 -15.26,3.781 -19.6,10.367 l -13.29,-12.887 c 8.11,-9.64 20.15,-13.421 32.47,-13.421 19.47,0 36.25,10.339 36.25,31.628 0,35.29 -47.04,23.95 -47.04,43.833 0,9.105 8.13,12.738 16.25,12.738 6.87,0 13.59,-2.52 17.37,-7.832 z m 50.65,-91.41 h 17.61 v 99.102 h -17.61 z m 72.04,0 h 17.62 v 76.008 h 0.28 l 49.01,-76.008 h 22.4 v 99.102 h -17.64 v -73.621 h -0.27 l -48.04,73.621 h -23.36 z m 204.99,91.41 c -7.69,7.282 -18.04,10.211 -28.41,10.211 -18.35,0 -36.52,-9.508 -36.52,-29.941 0,-35.426 47.04,-22.969 47.04,-44.668 0,-9.106 -9.26,-13.59 -17.37,-13.59 -7.85,0 -15.28,3.781 -19.61,10.367 l -13.29,-12.887 c 8.12,-9.64 20.14,-13.421 32.48,-13.421 19.46,0 36.25,10.339 36.25,31.628 0,35.29 -47.05,23.95 -47.05,43.833 0,9.105 8.13,12.738 16.25,12.738 6.86,0 13.59,-2.52 17.37,-7.832 z m 73.41,-91.41 h 17.62 v 83.16 h 30.38 v 15.942 h -78.37 v -15.942 h 30.37 z m 92.5,0 h 17.61 v 99.102 h -17.61 z m 92.28,0 h 17.62 v 83.16 h 30.38 v 15.942 h -78.37 v -15.942 h 30.37 z m 172.29,99.102 h -17.63 v -62.153 c 0,-9.8 -5.32,-22.687 -22.27,-22.687 -16.94,0 -22.27,12.887 -22.27,22.687 v 62.153 h -17.62 v -62.719 c 0,-23.938 17.2,-38.902 39.89,-38.902 22.69,0 39.9,14.964 39.9,38.902 z m 74.86,-99.102 h 17.63 v 83.16 h 30.38 v 15.942 h -78.38 v -15.942 h 30.37 v -83.16"
         style="fill:#89ba17;fill-opacity:1;fill-rule:nonzero;stroke:none"
         id="path22" /><path
         d="m 1687.48,929.25 h 59.77 v 15.938 h -42.15 v 83.162 h -17.62 z m 111.68,0 h 68.15 v 15.938 h -50.53 v 26.898 h 45.5 v 15.941 h -45.5 v 24.373 h 48.01 v 15.95 h -65.63 z m 125.19,0 h 17.61 v 99.1 h -17.61 z m 78.89,0 h 35.7 c 18.76,0 37.51,6.707 37.51,28.27 0,12.75 -8.95,22.535 -21.41,23.929 v 0.289 c 10.22,3.078 17.22,10.489 17.22,21.712 0,18.05 -15.4,24.9 -30.38,24.9 h -38.64 z m 17.63,83.99 h 14.56 c 13.31,0 19.2,-4.2 19.2,-12.75 0,-7.424 -5.89,-12.463 -17.66,-12.463 h -16.1 z m 0,-40.314 h 16.94 c 14.29,0 21.03,-3.645 21.03,-14.008 0,-13.023 -12.62,-14.57 -21.73,-14.57 h -16.24 z m 112.46,-43.676 h 17.62 v 76 h 0.27 l 49.01,-76 h 22.4 v 99.1 H 2205 v -73.623 h -0.28 l -48.04,73.623 h -23.35 z m 150.86,0 h 17.62 v 99.1 h -17.62 z m 72.05,0 h 75.73 v 15.938 h -54.18 l 53.34,67.212 v 15.95 h -74.06 v -15.95 h 52.08 l -52.91,-67.212 V 929.25"
         style="fill:#89ba17;fill-opacity:1;fill-rule:nonzero;stroke:none"
         id="path24" /></g></g></svg>