<?xml version="1.0" encoding="UTF-8"?><!DOCTYPE svg PUBLIC "-//W3C//DTD SVG 1.1//EN" "http://www.w3.org/Graphics/SVG/1.1/DTD/svg11.dtd"><svg xmlns="http://www.w3.org/2000/svg" viewBox="0 0 262 37">
<path fill="rgb(0,88,155)" d="M87.328.459c-5.101 0-9.1 1.764-12.001 5.292-2.683 3.248-4.024 7.41-4.024 12.483 0 6.683 1.787 11.625 5.358 14.826 2.714 2.42 6.067 3.629 10.06 3.629 4.632 0 8.313-1.474 11.043-4.423 2.277-2.449 3.618-5.484 4.024-9.104h-4.592c-.465 2.262-1.17 4.088-2.116 5.477-1.782 2.638-4.379 3.957-7.79 3.957-3.704 0-6.491-1.254-8.358-3.76-1.869-2.507-2.802-5.775-2.802-9.805 0-4.919 1.034-8.569 3.103-10.951 2.069-2.382 4.784-3.573 8.147-3.573 2.759 0 4.901.647 6.427 1.942 1.526 1.295 2.545 3.051 3.057 5.267h4.591c-.265-2.918-1.598-5.524-4-7.818-2.4-2.292-5.777-3.439-10.127-3.439M64.089 5.773C61.489 2.239 57.83.472 53.112.472H39.215v36.217h13.851c5.885 0 10.034-2.744 12.448-8.234 1.371-3.105 2.056-6.582 2.056-10.429 0-4.98-1.16-9.064-3.481-12.253m-1.695 16.889c-.401 2.285-1.057 4.158-1.966 5.621-1.143 1.824-2.608 3.057-4.397 3.697-1.003.346-2.283.518-3.842.518h-8.216V4.689h8.169c3.719 0 6.415 1.241 8.089 3.722 1.673 2.482 2.51 5.967 2.51 10.454 0 1.167-.115 2.432-.347 3.797zM0 36.689h4.497V6.143l9.88 30.546h4.666l9.833-30.546v30.546h4.497V.473h-6.7l-9.926 30.621L6.748.473H0v36.216 M257.891 35.904h.608v-3.881h.015l2.526 3.881h.703v-4.836h-.609v3.921h-.014l-2.545-3.921h-.685v4.836zm-6.257-2.417c0-.977.493-1.991 1.672-1.991s1.674 1.015 1.674 1.991c0 .975-.495 1.989-1.674 1.989s-1.672-1.014-1.672-1.989m-.644 0c0 1.312.779 2.532 2.315 2.532 1.538 0 2.315-1.22 2.315-2.532 0-1.314-.777-2.534-2.315-2.534-1.535 0-2.315 1.22-2.315 2.534m-2.946 2.417h.642v-4.836h-.642v4.836zm-4.307 0h.642v-4.295h1.613v-.541h-3.867v.541h1.612v4.295zm-4.702-4.254h.014l.807 2.258h-1.641l.82-2.258zm-2.227 4.254h.663l.543-1.454h2.044l.528 1.454h.711l-1.889-4.836h-.711l-1.889 4.836zm-2.641 0h.644v-4.836h-.644v4.836zm-117.558 0h.607v-3.881h.016l2.526 3.881h.703v-4.836h-.609v3.921h-.014l-2.545-3.921h-.684v4.836zm-3.27 0h.644v-4.836h-.644v4.836zm118.464-3.38c-.148-1.028-.981-1.571-1.99-1.571-1.49 0-2.289 1.145-2.289 2.547 0 1.408.73 2.52 2.234 2.52 1.219 0 1.969-.732 2.092-1.938h-.643c-.061.798-.55 1.395-1.395 1.395-1.16 0-1.646-.922-1.646-2.023 0-1.01.486-1.957 1.639-1.957.671 0 1.219.344 1.355 1.028h.643zm-10.307.963c0-.977.494-1.991 1.672-1.991s1.673 1.015 1.673 1.991c0 .975-.495 1.989-1.673 1.989s-1.672-1.014-1.672-1.989m-.642 0c0 1.312.777 2.532 2.314 2.532s2.314-1.22 2.314-2.532c0-1.314-.777-2.534-2.314-2.534s-2.314 1.22-2.314 2.534m-2.202-1.003c-.042-1.062-.793-1.531-1.783-1.531-.88 0-1.752.434-1.752 1.416 0 .887.778 1.112 1.551 1.28.771.169 1.545.283 1.545.948 0 .697-.646.879-1.227.879-.733 0-1.41-.352-1.41-1.164h-.609c0 1.178.914 1.707 1.998 1.707.881 0 1.891-.414 1.891-1.443 0-.949-.772-1.219-1.547-1.396-.777-.174-1.549-.262-1.549-.857 0-.629.541-.826 1.084-.826.662 0 1.123.299 1.197.988h.611zm-5.879 0c-.04-1.062-.793-1.531-1.781-1.531-.881 0-1.754.434-1.754 1.416 0 .887.778 1.112 1.55 1.28.774.169 1.546.283 1.546.948 0 .697-.645.879-1.227.879-.732 0-1.41-.352-1.41-1.164h-.609c0 1.178.915 1.707 1.998 1.707.881 0 1.891-.414 1.891-1.443 0-.949-.771-1.219-1.545-1.396-.777-.174-1.551-.262-1.551-.857 0-.629.543-.826 1.083-.826.665 0 1.126.299 1.2.988h.609zm-7.632-.834h.014l.806 2.258h-1.64l.82-2.258zm-2.229 4.254h.664l.542-1.454h2.044l.529 1.454h.711l-1.889-4.836h-.711l-1.89 4.836zm-8.804 0h3.849v-.543h-3.082l2.999-3.752v-.541h-3.536v.541h2.777l-3.007 3.752v.543zm-3.899 0h.642v-4.295h1.612v-.541h-3.867v.541h1.613v4.295zm-5.73 0h3.203v-.543h-2.561v-4.293h-.643v4.836zm-6.265-2.417c0-.977.493-1.991 1.672-1.991s1.672 1.015 1.672 1.991c0 .975-.493 1.989-1.672 1.989s-1.672-1.014-1.672-1.989m-.644 0c0 1.312.779 2.532 2.315 2.532s2.315-1.22 2.315-2.532c0-1.314-.779-2.534-2.315-2.534s-2.315 1.22-2.315 2.534m-6.109 2.417h.643v-2.215h2.549v2.215h.643v-4.836h-.643v2.08h-2.549v-2.08h-.643v4.836zm-7.375 0h.609v-4.021h.014l1.512 4.021h.547l1.509-4.021h.016v4.021h.607v-4.836h-.879l-1.53 4.064-1.523-4.064h-.881v4.836zm-5.27 0h3.205v-.543h-2.561v-4.293h-.645v4.836zm-5.627 0h3.359v-.543h-2.715v-1.672h2.513v-.541h-2.513v-1.539h2.693v-.541h-3.338v4.836zm-6.378 0h.644v-2.215h2.548v2.215h.641v-4.836h-.641v2.08h-2.548v-2.08h-.644v4.836zm-9.001 0h3.36v-.543h-2.717v-1.672h2.513v-.541h-2.513v-1.539h2.696v-.541h-3.34v4.836zm-6.378 0h.643v-2.215h2.547v2.215h.644v-4.836h-.644v2.08h-2.547v-2.08h-.643v4.836zm-4.282 0h.644v-4.295h1.61v-.541h-3.865v.541h1.61v4.295zM256.459 22.602H262v-.893h-4.481v-2.76h4.146v-.893h-4.146v-2.538h4.447v-.893h-5.507v7.977zm-8.077 0h1.004V16.2h.022l4.17 6.401h1.16v-7.977h-1.004v6.469h-.023l-4.203-6.469h-1.126v7.978zm-2.839 0h1.061v-7.977h-1.061v7.977zm-1.441-5.575c-.245-1.699-1.621-2.591-3.285-2.591-2.459 0-3.775 1.887-3.775 4.2 0 2.325 1.206 4.156 3.686 4.156 2.011 0 3.251-1.206 3.453-3.194h-1.062c-.101 1.318-.905 2.302-2.302 2.302-1.91 0-2.715-1.521-2.715-3.342 0-1.665.805-3.23 2.703-3.23 1.105 0 2.011.57 2.235 1.699h1.062zm-9.518 5.575h1.06v-7.977h-1.06v7.977zm-6.851-7.084h1.787c1.958 0 2.661 1.151 2.661 3.051 0 2.938-1.957 3.14-2.684 3.14h-1.765v-6.191zm-1.059 7.084h2.736c2.66 0 3.832-1.507 3.832-4.177 0-2.571-1.373-3.799-3.832-3.799h-2.736v7.976zm-6.827 0h5.541v-.893h-4.479v-2.76h4.145v-.893h-4.145v-2.538h4.445v-.893h-5.507v7.977zm-9.708 0h1.004v-6.635h.021l2.492 6.635h.906l2.491-6.636h.022v6.636h1.004v-7.977h-1.451l-2.525 6.705-2.514-6.705h-1.451v7.977zm-10.784 0h1.061v-3.408h2.594c1.028 0 1.219.66 1.329 1.442.157.782-.011 1.643.291 1.966h1.183c-.446-.547-.402-1.418-.47-2.201-.077-.781-.267-1.464-1.192-1.641v-.024c.959-.267 1.383-1.06 1.383-2.022 0-1.274-.926-2.089-2.424-2.089h-3.754v7.977zm1.061-4.3v-2.784h2.637c.996 0 1.421.582 1.421 1.364 0 1.162-.849 1.42-1.844 1.42h-2.214zm-5.574-2.716h.022l1.33 3.721h-2.704l1.352-3.721zm-3.676 7.016h1.096l.893-2.401h3.375l.871 2.401h1.172l-3.116-7.977h-1.173l-3.118 7.977zm-5.262 0h5.283v-.893h-4.223v-7.084h-1.061v7.977zm-1.7-7.977h-1.06v5.096c0 1.408-.738 2.179-2.078 2.179-1.408 0-2.213-.771-2.213-2.179v-5.096h-1.061v5.096c0 2.123 1.217 3.071 3.273 3.071 1.989 0 3.138-1.062 3.138-3.071v-5.096zm-7.765 2.402c-.246-1.699-1.619-2.591-3.283-2.591-2.458 0-3.776 1.887-3.776 4.2 0 2.325 1.204 4.156 3.687 4.156 2.01 0 3.251-1.206 3.451-3.194h-1.061c-.101 1.318-.904 2.302-2.301 2.302-1.912 0-2.715-1.521-2.715-3.342 0-1.665.803-3.23 2.703-3.23 1.106 0 2.012.57 2.234 1.699h1.061zm-13.495 5.575h5.541v-.893h-4.481v-2.76h4.145v-.893h-4.145v-2.538h4.447v-.893h-5.507v7.977zm-6.211 0h5.282v-.893h-4.225v-7.084h-1.058v7.977zm-7.878-3.989c0-1.609.814-3.286 2.76-3.286 1.944 0 2.76 1.677 2.76 3.286s-.815 3.286-2.76 3.286c-1.945 0-2.76-1.676-2.76-3.286m-1.061 0c0 2.168 1.284 4.179 3.821 4.179 2.536 0 3.82-2.011 3.82-4.179s-1.284-4.177-3.82-4.177c-2.537 0-3.821 2.009-3.821 4.177m-9.263 3.989h1.006v-6.635h.021l2.492 6.635h.906l2.492-6.636h.021v6.636h1.004v-7.977h-1.451l-2.525 6.705-2.514-6.705h-1.453v7.977zm-10.781 0h1.062v-3.408h2.592c1.029 0 1.217.66 1.331 1.442.156.782-.012 1.643.29 1.966h1.183c-.445-.547-.401-1.418-.468-2.201-.079-.781-.269-1.464-1.196-1.641v-.024c.961-.267 1.385-1.06 1.385-2.022 0-1.274-.926-2.089-2.424-2.089h-3.753v7.977zm1.062-4.3v-2.784h2.636c.995 0 1.42.582 1.42 1.364 0 1.162-.851 1.42-1.844 1.42h-2.212zm-8.939.311c0-1.609.816-3.286 2.76-3.286 1.945 0 2.76 1.677 2.76 3.286s-.815 3.286-2.76 3.286c-1.944 0-2.76-1.676-2.76-3.286m-1.06 0c0 2.168 1.283 4.179 3.82 4.179s3.82-2.011 3.82-4.179-1.283-4.177-3.82-4.177-3.82 2.009-3.82 4.177m-5.966 3.989h1.06v-3.653h3.665v-.893h-3.665v-2.538h4.179v-.893h-5.239v7.977zM255.409 8.476h1.06V5.067h2.594c1.027 0 1.218.66 1.33 1.442.154.783-.012 1.643.289 1.966h1.184c-.447-.548-.402-1.418-.469-2.201-.078-.783-.268-1.463-1.194-1.642V4.61c.96-.267 1.385-1.06 1.385-2.022 0-1.274-.927-2.088-2.424-2.088h-3.754v7.976zm1.06-4.3V1.392h2.639c.994 0 1.42.582 1.42 1.364 0 1.162-.851 1.42-1.846 1.42h-2.213zm-8.668 4.3h5.541v-.893h-4.481v-2.76h4.145v-.894h-4.145V1.392h4.447V.499h-5.507v7.977zm-5.385 0h1.06V1.392h2.659V.499h-6.379v.893h2.66v7.084zm-10.671 0h1.005V2.074h.022l4.169 6.402h1.16V.499h-1.004v6.468h-.022L232.873.499h-1.128v7.977zm-7.597 0h5.541v-.893h-4.482v-2.76h4.146v-.894h-4.146V1.392h4.448V.499h-5.507v7.977zm-2.18-5.576c-.245-1.699-1.619-2.59-3.284-2.59-2.457 0-3.774 1.886-3.774 4.199 0 2.325 1.204 4.157 3.686 4.157 2.011 0 3.251-1.206 3.451-3.194h-1.06c-.102 1.318-.906 2.301-2.303 2.301-1.91 0-2.715-1.521-2.715-3.342 0-1.665.805-3.229 2.703-3.229 1.107 0 2.012.57 2.234 1.699h1.062zm-20.03 5.576h1.061V5.683l1.329-1.24 2.883 4.033h1.341l-3.497-4.757L208.417.5h-1.374l-4.044 3.978V.499h-1.061v7.977zm-2.18-5.576c-.246-1.699-1.621-2.59-3.286-2.59-2.458 0-3.774 1.886-3.774 4.199 0 2.325 1.206 4.157 3.686 4.157 2.011 0 3.252-1.206 3.453-3.194h-1.062c-.101 1.318-.905 2.301-2.303 2.301-1.91 0-2.714-1.521-2.714-3.342 0-1.665.804-3.229 2.703-3.229 1.105 0 2.011.57 2.235 1.699h1.062zM190.607.499h-1.061v5.095c0 1.408-.737 2.179-2.078 2.179-1.409 0-2.214-.771-2.214-2.179V.499h-1.06v5.095c0 2.123 1.217 3.072 3.273 3.072 1.988 0 3.139-1.062 3.139-3.072V.499zm-14.802 7.977h1.059V5.067h2.594c1.029 0 1.219.66 1.33 1.442.156.783-.01 1.643.291 1.966h1.184c-.447-.548-.402-1.418-.469-2.201-.079-.783-.268-1.463-1.196-1.642V4.61c.961-.267 1.384-1.06 1.384-2.022 0-1.274-.925-2.088-2.423-2.088h-3.753v7.976zm1.058-4.3V1.392h2.64c.993 0 1.419.582 1.419 1.364 0 1.162-.85 1.42-1.844 1.42h-2.215zm-8.433-2.784h2.124c.915 0 1.697.156 1.697 1.263 0 .838-.491 1.274-1.697 1.274h-2.124V1.392zm-1.062 7.084h3.855c1.585 0 2.424-1.116 2.424-2.29 0-.984-.536-1.721-1.519-1.922v-.022c.736-.301 1.182-.939 1.182-1.788 0-.784-.412-1.352-.936-1.665-.481-.291-1.41-.291-2.112-.291h-2.895v7.978zm1.062-3.654h2.425c.894 0 1.733.291 1.733 1.33 0 .872-.582 1.43-1.498 1.43h-2.66v-2.76zm-8.055 3.654h5.283v-.893h-4.224V.499h-1.06v7.977zm-7.607 0h5.539v-.893h-4.48v-2.76h4.146v-.894h-4.146V1.392h4.446V.499h-5.505v7.977zm-7.589-7.084h1.789c1.956 0 2.659 1.151 2.659 3.051 0 2.939-1.955 3.14-2.682 3.14h-1.767V1.392zm-1.06 7.084h2.736c2.66 0 3.832-1.507 3.832-4.177 0-2.571-1.373-3.799-3.832-3.799h-2.736v7.976zm-13.62 0h1.196l2.211-3.296 2.146 3.296h1.294l-2.804-4.101 2.637-3.876h-1.184l-2.078 3.117-1.988-3.117h-1.274l2.625 3.876-2.781 4.101zm-4.414-7.016h.022l1.33 3.721h-2.704l1.352-3.721zm-3.675 7.016h1.095l.893-2.401h3.375l.871 2.401h1.172L126.7.499h-1.173l-3.117 7.977zm-9.541 0h1.003V1.841h.022l2.493 6.635h.905l2.491-6.636h.022v6.636h1.005V.499h-1.451l-2.526 6.704-2.515-6.704h-1.451v7.977zm73.136-6.809h1.007V.5h-1.007v1.167zm1.776 0h1.008V.5h-1.008v1.167z"/></svg>