<?xml version="1.0" encoding="UTF-8" standalone="no"?>
<!-- Generator: Adobe Illustrator 26.0.2, SVG Export Plug-In . SVG Version: 6.00 Build 0)  -->

<svg
   version="1.1"
   id="Ebene_1"
   x="0px"
   y="0px"
   viewBox="0 0 93.1 53.799998"
   xml:space="preserve"
   sodipodi:docname="MDC_logo_V1_RGB-blau.svg"
   width="93.099998"
   height="53.799999"
   inkscape:version="1.2.2 (b0a8486541, 2022-12-01)"
   xmlns:inkscape="http://www.inkscape.org/namespaces/inkscape"
   xmlns:sodipodi="http://sodipodi.sourceforge.net/DTD/sodipodi-0.dtd"
   xmlns="http://www.w3.org/2000/svg"
   xmlns:svg="http://www.w3.org/2000/svg"><defs
   id="defs148" /><sodipodi:namedview
   id="namedview146"
   pagecolor="#ffffff"
   bordercolor="#666666"
   borderopacity="1.0"
   inkscape:showpageshadow="2"
   inkscape:pageopacity="0.0"
   inkscape:pagecheckerboard="0"
   inkscape:deskcolor="#d1d1d1"
   showgrid="false"
   inkscape:zoom="7.8109037"
   inkscape:cx="41.480476"
   inkscape:cy="48.201849"
   inkscape:window-width="1920"
   inkscape:window-height="1002"
   inkscape:window-x="0"
   inkscape:window-y="0"
   inkscape:window-maximized="1"
   inkscape:current-layer="Ebene_1" />
<style
   type="text/css"
   id="style137">
	.st0{fill:#1E3791;}
	.st1{fill:#FFFFFF;}
</style>
<g
   id="g143"
   transform="translate(-251,-394.9)">
	<polygon
   class="st0"
   points="298.8,411 298.8,394.9 251,394.9 251,411 251,432.6 261.8,432.6 261.8,448.7 332.7,448.7 332.7,432.6 344.1,432.6 344.1,411 "
   id="polygon139" />
	<path
   class="st1"
   d="m 334.1,421.8 4.7,-5.4 h -2.3 l -3.9,4.5 h -1.3 v -4.5 h -1.7 v 10.8 h 1.7 v -4.5 h 1.3 l 3.9,4.5 h 2.3 z m -13.5,1.3 v -2.6 c 0,-1.4 1.2,-2.6 2.6,-2.6 1.4,0 2.6,1.2 2.6,2.6 h 1.7 c 0,-2.4 -1.9,-4.3 -4.3,-4.3 -2.4,0 -4.3,1.9 -4.3,4.3 v 2.6 c 0,2.4 1.9,4.3 4.3,4.3 2.4,0 4.3,-1.9 4.3,-4.3 h -1.7 c 0,1.4 -1.2,2.6 -2.6,2.6 -1.5,0 -2.6,-1.2 -2.6,-2.6 z m 3.1,9.5 h -5.2 v 10.8 h 1.7 V 440 h 3.4 l 1.6,3.4 h 1.9 l -1.7,-3.9 c 1.2,-0.6 2,-1.8 2,-3.3 0,-2 -1.7,-3.6 -3.7,-3.6 z m -3.4,1.7 h 3.4 c 1.1,0 1.9,0.9 1.9,1.9 0,1.1 -0.9,1.9 -1.9,1.9 h -3.4 z m -3.5,-11.2 v -6.7 H 315 v 6.7 c 0,1.4 -1.2,2.6 -2.6,2.6 -1.4,0 -2.6,-1.2 -2.6,-2.6 v -6.7 h -1.7 v 6.7 c 0,2.4 1.9,4.3 4.3,4.3 2.4,0 4.4,-1.9 4.4,-4.3 z m -6.9,-7.6 h 5.2 v -1.7 h -5.2 z m 6.2,17.1 h -8.6 v 10.8 h 8.6 v -1.7 h -6.9 v -2.8 h 6.9 v -1.7 h -6.9 v -2.8 h 6.9 z m -9.8,-12.5 c 0,-2 -1.6,-3.7 -3.7,-3.7 h -5.2 v 10.8 h 1.7 v -3.4 h 3.4 l 1.6,3.4 h 1.9 l -1.7,-3.9 c 1.2,-0.6 2,-1.8 2,-3.2 z m -1.7,0 c 0,1.1 -0.9,1.9 -1.9,1.9 h -3.4 v -3.9 h 3.4 c 1,0.1 1.9,0.9 1.9,2 z m 1.1,12.5 h -8.6 v 1.7 h 3.4 v 9 h 1.7 v -9 h 3.4 v -1.7 z m -12.5,10.8 h 2.1 v -10.8 h -1.7 v 7.8 l -4.8,-7.8 h -2.1 v 10.8 h 1.7 v -7.8 z m 1.9,-19.3 c 0,-0.9 -0.4,-1.7 -1,-2.3 0.6,-0.6 0.9,-1.4 0.9,-2.2 0,-1.7 -1.4,-3.1 -3.1,-3.1 h -5.4 v 10.8 h 5.5 c 1.7,-0.1 3.1,-1.5 3.1,-3.2 z m -1.8,-4.5 c 0,0.8 -0.6,1.4 -1.4,1.4 h -3.7 v -2.8 h 3.7 c 0.8,0 1.4,0.6 1.4,1.4 z m 0.1,4.5 c 0,0.8 -0.6,1.4 -1.4,1.4 h -3.8 v -2.8 h 3.8 c 0.7,0 1.4,0.6 1.4,1.4 z m 0,-13.1 -3.2,-5.4 3.2,-5.4 h -2 l -2.5,4.2 -2.5,-4.2 h -2 l 3.2,5.4 -3.2,5.4 h 2 l 2.5,-4.2 2.5,4.2 z m -12.1,0 h 1.8 l -3.7,-10.8 H 277 l -3.7,10.8 h 1.8 l 0.8,-2.4 h 4.6 z m -1.4,-4 h -3.5 l 1.7,-4.9 z m -10.2,4 h 1.7 v -10.8 h -2.2 l -5.4,9 -5.4,-9 h -2.2 V 411 h 1.7 v -8.2 l 4.8,8.2 h 1.9 l 4.8,-8.2 v 8.2 z m -9.9,5.4 h -3.4 v 10.8 h 3.4 c 3,0 5.4,-2.4 5.4,-5.4 0,-3 -2.4,-5.4 -5.4,-5.4 z m -1.7,1.8 h 1.7 c 2,0 3.7,1.6 3.7,3.7 0,2 -1.6,3.7 -3.7,3.7 h -1.7 z m 17.5,-1.8 H 267 v 10.8 h 8.6 v -1.7 h -6.9 v -2.8 h 6.9 V 421 h -6.9 v -2.8 h 6.9 z m -8.4,19.2 v 4.7 c 0,1.8 1.4,3.2 3.2,3.2 1.8,0 3.2,-1.4 3.2,-3.2 v -0.2 h -1.7 v 0.2 c 0,0.8 -0.7,1.5 -1.5,1.5 -0.8,0 -1.5,-0.7 -1.5,-1.5 v -4.7 c 0,-0.8 0.7,-1.5 1.5,-1.5 0.8,0 1.5,0.7 1.5,1.5 v 0.2 h 1.7 v -0.2 c 0,-1.8 -1.4,-3.2 -3.2,-3.2 -1.8,0 -3.2,1.4 -3.2,3.2 z m 11,-8.4 h 6.5 v -1.7 H 280 v -9 h -1.7 v 10.7 z m 6,5.4 h -8.6 v 10.8 h 8.6 v -1.7 h -6.9 v -2.8 h 6.9 v -1.7 h -6.9 v -2.8 h 6.9 z"
   id="path141" />
</g>
</svg>
