<svg id="Layer_1" data-name="Layer 1" xmlns="http://www.w3.org/2000/svg" width="200" height="200" viewBox="0 0 200 200"><defs><style>.cls-1{fill:#1e1e1c;}.cls-2{fill:#fff;}.cls-3{fill:#bc1540;}.cls-4{fill:#b9966c;}.cls-5{fill:#2770b7;}.cls-6{fill:#0777bd;}.cls-7{fill:#ddc391;}.cls-8{fill:#bc996d;}.cls-9{fill:#f4e0a9;}.cls-10{fill:#aa936c;}.cls-11{fill:none;}</style></defs><title>university-of-barcelona-logo-freelogovectors.net_</title><g id="Words"><path class="cls-1" d="M181.36,147.23l2.82,7.63h-5.57Zm-.43-2.87-6.44,17.21-1.6.33V163h5.39V161.9l-1.78-.12-.28-.38,2-5.27h6.49l2,5.27-.2.38-1.71.12V163H191V161.9l-1.65-.33-6.62-17.21Zm-30.19,18.69h5.8V161.9l-1.66-.22-.48-.54V147.41l10.48,15.64h1.81V146.44l.48-.48,1.65-.23v-1.12h-5.75v1.12l1.66.23.48.48v12.92l-9.38-14.09v-.69h-5.17v1.12l1.76.13.48.38v14.93l-.48.54-1.68.22v1.15ZM136.6,145.6c3.74,0,6.05,3.16,6.05,8.27,0,5-2.36,8.16-6,8.16s-6-3.25-6-8.26,2.34-8.17,5.95-8.17m.18-1.47c-5.34,0-9,4-9,9.69s3.69,9.66,8.92,9.66,8.86-4,8.86-9.69-3.72-9.66-8.75-9.66m-26,18.92H124v-5h-1.43l-.45,3.3-.39.44h-6.18V146.24l.44-.38,1.57-.13v-1.12h-6.71v1.12l1.75.13.46.38V161.4l-.46.38-1.75.12v1.15Zm-19.81,0h14.17v-4.48h-1.43l-.45,2.77-.39.44H95.5v-7.71H100l.38.41.28,2H102v-6.05h-1.3l-.28,2-.38.38H95.5v-7h6.36l.38.41.38,2.34h1.55v-4H91v1.12l1.57.13.46.38V161.4l-.46.38L91,161.9v1.15Zm-5.92-5H83.57l-.66,3.06-.43.43a7.37,7.37,0,0,1-2.39.35c-4.46,0-7.18-3.1-7.18-8.19s2.57-8,6.74-8a6.79,6.79,0,0,1,3.11.72l.35.48.41,2.49h1.55v-4.25a17.58,17.58,0,0,0-5.44-.94c-5.67,0-9.54,3.82-9.54,9.44a9.82,9.82,0,0,0,2.54,6.81,9,9,0,0,0,7,2.88,16.58,16.58,0,0,0,5.52-1v-4.3ZM53.92,145.83h1.32c3.56,0,5.06,1.15,5.06,3.84s-1.48,3.89-4.76,3.89c-.33,0-.68,0-1.62-.05Zm-4.53-1.25v1.12l1.57.13.46.38V161.4l-.46.38-1.57.12V163h6.53V161.9l-1.57-.12-.46-.38v-6.54c.94-.05,1.07-.05,1.45-.05a4,4,0,0,1,3.23,1c.58.64.89,1.3,1.4,3.28.86,3.28,1.78,4.15,4.37,4.15A9.64,9.64,0,0,0,66.5,163v-1c-2.92,0-3.61-.53-4.27-3.56-.58-2.75-1.37-3.69-3.69-4.32,3.11-.77,4.45-2.17,4.45-4.71,0-3.2-2.21-4.81-6.63-4.81Zm-13.84,2.65,2.83,7.63H32.81Zm-.43-2.87-6.43,17.21-1.61.33V163h5.39V161.9l-1.78-.12-.28-.38,2-5.27h6.49l2,5.27-.2.38-1.71.12V163h6.26V161.9l-1.65-.33-6.61-17.21Zm-21.59,10c1.14-.11,2-.16,2.74-.16,3,0,4.48,1.22,4.48,3.69,0,2.7-1.65,3.92-5.29,3.92-.41,0-.53,0-2-.08v-7.37Zm0-8.47c1.27-.08,1.55-.08,1.88-.08,2.72,0,4.22,1.22,4.22,3.41,0,2.57-1.63,3.76-5,3.76l-1,0v-7.07ZM9,144.58v1.12l1.58.13.45.38V161.4l-.45.38L9,161.9V163h7.27c4.61,0,7.2-1.93,7.2-5.29,0-2.87-1.7-4.37-5.14-4.5,2.88-.89,4-2.08,4-4.32,0-2.9-2.11-4.35-6.31-4.35H9Z"/><path class="cls-1" d="M160.91,124h2.8v10.13l-.25.2-1.4.1v.92h5.47v-.92l-1.43-.1-.23-.2V124h2.8l.28.21.33,1.9h1.3V123H159v3.12h1.29l.36-1.9Zm-10.83,1.07L152,129.6H148.2Zm-.36-2.24-4.65,11.37-1.2.21v.91h3.94v-.91l-1.34-.11-.13-.2,1.37-3.46h4.68l1.43,3.46-.11.2-1.24.11v.91h4.91v-.91l-1.22-.21-4.78-11.37ZM132.17,124H135v10.13l-.25.2-1.4.1v.92h5.47v-.92l-1.43-.1-.23-.2V124h2.8l.28.21.33,1.9h1.3V123H130.27v3.12h1.29l.36-1.9Zm-6.1-1H120.7v.91l1.35.1.25.21v9.92l-.25.2-1.35.1v.92h5.37v-.92l-1.37-.1-.23-.2v-9.92l.23-.21,1.37-.1Zm-19.69,11.92a9.93,9.93,0,0,0,3.72.61c3.28,0,5.41-1.47,5.41-3.73a2.73,2.73,0,0,0-.94-2.11,6.55,6.55,0,0,0-2.64-1.33c-2.49-.91-3.1-1.37-3.1-2.41,0-1.22,1-2,2.56-2a5,5,0,0,1,1.66.28l.25.28.33,1.94H115v-3.08a11.24,11.24,0,0,0-3.58-.59c-3,0-4.81,1.4-4.81,3.64,0,1.53.79,2.31,3.31,3.31a13.14,13.14,0,0,1,2.36,1,1.69,1.69,0,0,1,1,1.58c0,1.27-1.07,2-2.85,2a7.15,7.15,0,0,1-2.13-.33l-.21-.28-.28-2.29h-1.42v3.43ZM93.39,124h.76c2.44,0,3.46.74,3.46,2.47s-1,2.44-3.33,2.44c-.33,0-.56,0-.89,0Zm-3.64-1v.91L91,124l.26.21v9.92l-.26.2-1.22.1v.92h5.11v-.92l-1.22-.1-.25-.2v-4.2a7.77,7.77,0,0,1,.84,0c1.88,0,2.39.44,3.07,2.57.77,2.42,1.43,3,3.36,3a9.16,9.16,0,0,0,1.86-.2v-.84h-.41c-1.63,0-2.11-.36-2.57-1.89-.61-2.23-1-2.77-2.62-3.2,2.09-.48,3.11-1.48,3.11-3.1,0-2.16-1.71-3.28-5-3.28Zm-5.52,0H74.34v.91l1.22.1.25.21v9.92l-.25.2-1.22.1v.92h10.6v-3.28H83.7l-.38,2.06-.36.2H78v-4.88h3l.28.17.2,1.38h1.19v-4.17H81.43l-.2,1.37-.28.2H78V124h4.27l.31.2.33,1.6h1.35V123ZM63.4,135.38h1.68l4.58-11.29,1.27-.21V123h-4v.91l1.3.1.13.21L64.75,133l-3.66-8.85.15-.21,1.22-.1V123h-5v.91l1.28.21ZM54,123H48.68v.91L50,124l.26.21v9.92l-.26.2-1.34.1v.92H54v-.92l-1.37-.1-.23-.2v-9.92l.23-.21,1.37-.1Zm-13,9.25-6.35-8.69V123H30.69v.91L32,124l.26.21V134l-.28.26-1.27.15v.92h4.42v-.92l-1.27-.15-.28-.26v-8.49l7.22,9.82h2.39l-1-1.3v-9.69l.28-.28,1.27-.15V123H39.44v.92l1.28.15.27.28v7.88Z"/><path class="cls-1" d="M184.16,129.17v.54l.69,0,.1.1v4.73l-.13.1-.66.05v.54h5.75v-1.71H189l-.21,1-.07.11h-2.19v-2.24h1.14l.11.07.1.72h.81V131h-.81l-.1.71-.11.08h-1.14v-2h1.86l.07.08.15.81h1v-1.5Zm-7.28.61h.49c1.57,0,2.34.79,2.34,2.44s-.74,2.45-2.34,2.45h-.49Zm-2.39-.61v.54l.67,0,.12.1v4.73l-.12.1-.67.05v.54h3.11c2.44,0,3.84-1.12,3.84-3.06s-1.43-3.05-3.84-3.05Z"/><path class="cls-1" d="M26.29,119.86H21V121l1.63.2.51.48v9.57c0,3.74-1.45,5.36-4.84,5.36S13.5,135,13.5,131.21v-9.77l.46-.38,1.68-.13v-1.09H9.46V121l1.12.1.45.39v10a8,8,0,0,0,.77,4.15c1,1.68,3.15,2.64,6,2.64a7.48,7.48,0,0,0,5.57-2c.87-1,1.23-2.34,1.23-4.81v-9.82l.48-.48,1.24-.18v-1.12Z"/></g><g id="White"><path class="cls-2" d="M118.21,63.55v0ZM100.1,99.36h0c-8.26,0-17.22-4-20.19-6.2a2.52,2.52,0,0,1-.64-.66,2.19,2.19,0,0,1-.3-1.1c0-11.21,0-44.1,0-44.45a1.88,1.88,0,0,1,.33-1.05,1.81,1.81,0,0,1,.87-.66A60.83,60.83,0,0,1,100,41.66a66.53,66.53,0,0,1,20,3.56h0a1.8,1.8,0,0,1,.86.63,1.9,1.9,0,0,1,.36,1V47l0,44.05a2.46,2.46,0,0,1-1,2.13C117.32,95.29,108.37,99.36,100.1,99.36Z"/></g><g id="Red"><path class="cls-3" d="M99.69,69.66s-6.53,0-7.9,0a.3.3,0,0,1-.31-.3v-6H88.83v6s-.12.31-.27.31H80.67s0,3,0,3l7.83,0a.33.33,0,0,1,.31.28v6.28l2.75,0V72.79a.28.28,0,0,1,.3-.28l8.14,0C100,72.05,99.69,69.66,99.69,69.66Z"/><rect class="cls-3" x="115.41" y="63.12" width="2.26" height="16.1"/><rect class="cls-3" x="110.86" y="63.12" width="2.26" height="16.1"/><rect class="cls-3" x="106.33" y="63.12" width="2.26" height="16.1"/><rect class="cls-3" x="101.78" y="63.12" width="2.26" height="16.1"/><path class="cls-3" d="M119.38,85.91s-6.79,0-8.16,0a.31.31,0,0,1-.31-.31V79.2h-2.64v6.4s-.13.31-.41.31H100a18.53,18.53,0,0,1,0,3l7.84,0c.25,0,.4.13.4.28v7.55l2.75-.84V89a.29.29,0,0,1,.31-.28l8.14,0C119.41,88.3,119.38,85.91,119.38,85.91Z"/><rect class="cls-3" x="96.13" y="79.45" width="2.39" height="18.24"/><polygon class="cls-3" points="91.58 96.49 94 97.15 94 79.45 91.58 79.45 91.58 96.49"/><polygon class="cls-3" points="87.05 95.14 89.47 96.01 89.47 79.45 87.05 79.45 87.05 95.14"/><polygon class="cls-3" points="82.5 93.13 84.92 94.25 84.92 79.45 82.5 79.45 82.5 93.13"/></g><g id="Red_Shaddow" data-name="Red Shaddow"><path class="cls-4" d="M81,72.28h-.16V70.55a.43.43,0,0,1,.49-.38h7.07c.45,0,.66-.18.68-.64V64a.46.46,0,0,1,.46-.41H91c.31,0,.46.18.46.51h-.15c0-.23-.1-.35-.31-.35h-1.5c-.18,0-.28.07-.3.25v5.52a.74.74,0,0,1-.84.84H81.31c-.26,0-.31.15-.33.25Z"/><path class="cls-4" d="M89.27,78.89h-.16v-6a.56.56,0,0,0-.5-.46l0-.15a.7.7,0,0,1,.64.66Z"/><path class="cls-4" d="M82.81,93h-.16V80.16c0-.3.08-.48.36-.51h1.63a.45.45,0,0,1,.46.51h-.16c0-.23-.1-.35-.3-.35H83c-.13,0-.2,0-.2.35V93Z"/><path class="cls-4" d="M87.39,95.14h-.16v-15c0-.31.1-.44.36-.44h1.58c.3,0,.45.18.45.49h-.15c0-.23-.1-.33-.3-.33H87.59c-.15,0-.2,0-.2.28v15Z"/><path class="cls-4" d="M91.89,96.46h-.16V80.11c0-.33.11-.46.39-.46h1.6c.28,0,.43.18.46.49H94a.28.28,0,0,0-.3-.33h-1.6c-.16,0-.23,0-.23.3V96.46Z"/><path class="cls-4" d="M96.46,97.38h-.15V80.09c0-.31.13-.44.38-.44h1.58a.45.45,0,0,1,.46.51h-.15c0-.23-.11-.35-.31-.35H96.69c-.12,0-.2,0-.23.28Z"/><path class="cls-4" d="M99.57,70.57c0-.07-.08-.17-.31-.17H92.14a.8.8,0,0,1-.81-.61s0-.06,0-.08l.15-.08s0,.05,0,.08a.66.66,0,0,0,.66.51h7.12a.43.43,0,0,1,.46.3Z"/><path class="cls-4" d="M100.89,88.4h-.15V86.8c0-.28.15-.31.33-.31H108a.74.74,0,0,0,.78-.71V80c0-.23.08-.28.23-.28h1.81v.15H109c-.08,0-.08,0-.1.13v5.82a.88.88,0,0,1-.94.84h-6.92c-.18,0-.18,0-.18.15Z"/><path class="cls-4" d="M108.88,96.26h-.16V89.45a.81.81,0,0,0-.2-.59.41.41,0,0,0-.28-.13h0v-.15a.58.58,0,0,1,.41.18.88.88,0,0,1,.26.69v6.81Z"/><path class="cls-4" d="M119.48,87a.29.29,0,0,0-.33-.28H111.9a1,1,0,0,1-.86-.53.28.28,0,0,1-.05-.08l.1-.1a1.15,1.15,0,0,1,.08.1.77.77,0,0,0,.73.46h7.56l-.08,0a.39.39,0,0,1,.25.38Z"/><path class="cls-4" d="M115.69,78.94h-.15V64c0-.36.15-.43.41-.43h1.55c.3,0,.46.17.46.5h-.16c0-.23-.1-.35-.3-.35H116c-.15,0-.23,0-.25.28Z"/><path class="cls-4" d="M111.14,79H111V64.06c0-.43.28-.43.45-.43H113c.28,0,.43.15.45.46h-.15c0-.21-.1-.31-.3-.31h-1.51c-.2,0-.3,0-.3.28Z"/><path class="cls-4" d="M106.64,79h-.15V64c0-.38.2-.4.43-.4h1.52a.43.43,0,0,1,.46.48h-.15c0-.23-.1-.33-.31-.33h-1.52c-.18,0-.28,0-.28.25V79Z"/><path class="cls-4" d="M102,79h-.15l0-14.93c0-.38.15-.41.38-.41h1.58c.3,0,.45.18.45.51h-.15c0-.23-.1-.36-.3-.36h-1.58c-.2,0-.23,0-.23.26v.1Z"/><path class="cls-4" d="M89,78.64h-.07v-5.7a.68.68,0,0,0-.16-.48l0-.06A.83.83,0,0,1,89,73Z"/><path class="cls-4" d="M102.21,49.36Z"/></g><g id="Blue"><path class="cls-5" d="M100.05,43.18h-.66a59.67,59.67,0,0,0-18.92,3.31l.07,15h39V46.69A60.69,60.69,0,0,0,100.05,43.18Z"/><path class="cls-6" d="M104.2,52.75a4,4,0,1,0-4,4A4,4,0,0,0,104.2,52.75Z"/></g><g id="Gold_Badge" data-name="Gold Badge"><path class="cls-7" d="M80.16,61.52V46.72a.38.38,0,0,1,0-.18.42.42,0,0,1,.16-.13A60.19,60.19,0,0,1,100,42.88a66,66,0,0,1,19.82,3.56l.2.3V61.52a.43.43,0,0,1-.48.43H80.67A.43.43,0,0,1,80.16,61.52Zm.59-.15h38.63V47h0A65.22,65.22,0,0,0,100,43.51a59.72,59.72,0,0,0-19.2,3.41h0V61.37Z"/><path class="cls-7" d="M119.66,92.19a39.52,39.52,0,0,1-19.58,6h0a39.56,39.56,0,0,1-19.59-6,.79.79,0,0,1-.33-.71h0v-.31h0V63.4a.48.48,0,0,1,.51-.53h38.84a.44.44,0,0,1,.48.38v28A.89.89,0,0,1,119.66,92.19ZM80.8,69h0a.35.35,0,0,0,.2.35h6.89a.26.26,0,0,0,.26-.28V64c0-.18-.05-.38-.28-.38H81.05c-.15,0-.25.08-.25.33V69Zm.28,9.92h6.84a.36.36,0,0,0,.23-.28V73.32c0-.2-.08-.28-.18-.28H81.08c-.18,0-.26.15-.26.41v5.08h0A.33.33,0,0,0,81.08,78.92Zm3.66,1.14c0-.33-.1-.43-.31-.43H82.91c-.2,0-.31.1-.31.43V92.42a.53.53,0,0,0,.23.46c.51.28,1.1.58,1.73.86.18,0,.21,0,.21-.33C84.77,93.39,84.74,80.39,84.74,80.06ZM89.27,80c0-.3-.18-.35-.38-.35H87.54c-.21,0-.36.05-.38.33V94.51a.49.49,0,0,0,.25.45c.53.21,1.09.41,1.65.59.21,0,.21,0,.21-.33Zm4.55,0c0-.31-.18-.33-.38-.33H92c-.2,0-.38.05-.38.38V95.93a.51.51,0,0,0,.3.51c.54.15,1.1.28,1.66.38.17,0,.17,0,.17-.3V80Zm4.55,0c0-.2-.07-.35-.28-.35h-1.5c-.2,0-.33,0-.33.3V96.85a.54.54,0,0,0,.36.48l1.57.15c.13,0,.21-.13.21-.35C98.37,96.44,98.37,80.54,98.37,80Zm1.2-6.63h0a.37.37,0,0,0-.31-.39h-7a.26.26,0,0,0-.25.28v5.32s0,0,0,0a.37.37,0,0,0,.28.39h7a.33.33,0,0,0,.23-.28V73.35Zm-.1-3c0-.13-.21-.2-.44-.2H91.91c-.61,0-.61-.38-.61-.82h-.1V64c0-.33-.23-.38-.43-.38H89.42c-.18,0-.33,0-.38.25v5.52h0c0,.44-.15.82-.76.82H81.15c-.28,0-.33.15-.35.3v1.4a.33.33,0,0,0,.38.31h7.1c.61,0,.76.33.76.76h0v5.67c0,.15,0,.26.2.28h1.88c.13,0,.21-.18.21-.41V72.94h0c0-.43.15-.76.76-.76h7.15c.23,0,.23-.23.25-.36V70.37Zm0-6.46h0c0-.18,0-.3-.28-.3H92.6c-.38,0-.56-.06-.56.38V69.1a.26.26,0,0,0,.25.28h6.85a.35.35,0,0,0,.3-.28V63.91ZM119,79.63h-7c-.15,0-.2.07-.25.25v5.45a.25.25,0,0,0,.25.27h7.15c.13,0,.13-.1.15-.27V80C119.23,79.76,119.13,79.65,119,79.63Zm-.51-16.1v0Zm-3,15a.36.36,0,0,0,.33.41h1.42a.4.4,0,0,0,.36-.44V64c0-.33-.18-.38-.38-.38h-1.35c-.2,0-.38.05-.38.36Zm-4.55-.08v0c0,.31.15.41.33.44h1.47a.34.34,0,0,0,.33-.39V64c0-.28-.12-.38-.33-.38h-1.42c-.21,0-.38.05-.38.38Zm-4.53.08c0,.3.15.41.33.41h1.45a.36.36,0,0,0,.33-.41V64c0-.31-.13-.41-.33-.41h-1.45c-.2,0-.36.05-.36.36V78.51Zm-4.55,0h0c0,.31.15.41.33.44h1.47c.18,0,.33-.13.33-.44V64c0-.33-.1-.43-.3-.43h-1.45c-.21,0-.38,0-.38.35V78.48Zm-1.22,6.87a.28.28,0,0,0,.28.25h6.61a.25.25,0,0,0,.25-.27V80c0-.23-.12-.33-.25-.36h-6.59c-.18,0-.3.13-.3.43v5.32Zm7.17,4.35c0-.2,0-.41-.13-.41h-6.76c-.16,0-.26.1-.26.36v7.5h0c0,.23.1.41.43.41h0a34.8,34.8,0,0,0,6.51-1c.2-.07.18-.25.2-.4C107.81,94.91,107.81,89.8,107.81,89.7Zm3.13-.48c0-.44.15-.77.76-.77h7.43c.12,0,.1-.1.12-.28V86.7c0-.26-.2-.28-.4-.28h-7.23a.75.75,0,0,1-.81-.82V80c0-.33-.08-.43-.31-.43H109c-.15,0-.31.05-.31.36V85.6h0c0,.44-.15.82-.76.82H101c-.18,0-.33,0-.35.35V88c0,.28.12.41.3.43,1.4,0,5.37,0,7,0,.61,0,.76.38.76.82h0V96c0,.1.08.21.23.21.61-.18,1.22-.36,1.83-.56a.38.38,0,0,0,.23-.28l0-6.18Zm8.31,2.31,0-.13V89.67a.37.37,0,0,0-.33-.4h-7c-.1,0-.25,0-.25.28V95a.2.2,0,0,0,.28.2,33.1,33.1,0,0,0,7.32-3.56S119.25,91.66,119.25,91.53Z"/><path class="cls-7" d="M103.87,52.64a3.79,3.79,0,1,0-3.79,3.79A3.81,3.81,0,0,0,103.87,52.64Z"/><path class="cls-7" d="M100.08,58c.28,0,.38.22.4.5,0,.44.08,1.2.1,1.66a.07.07,0,0,1-.07.07h-.82a.12.12,0,0,1-.1-.05s.08-1.24.1-1.68c0-.28.11-.5.39-.5"/><path class="cls-7" d="M100.08,47.23c-.28,0-.39-.23-.41-.51,0-.49,0-1-.1-2a.05.05,0,0,1,.05,0h.91a.11.11,0,0,1,.08.08c0,1-.08,1.52-.1,2-.05.28-.15.51-.43.51"/><path class="cls-7" d="M98.4,57.78c.25.08.3.33.23.61-.13.46-.36,1.3-.49,1.83a.11.11,0,0,1-.1.08h-.91c-.08,0-.08-.1-.08-.1s.61-1.58.79-2.06c.13-.26.3-.44.56-.36"/><path class="cls-7" d="M96.9,57c.23.15.18.4,0,.63l-1.7,2.62H93.9c-.11,0-.08-.12-.08-.12s1.93-2.39,2.44-3c.2-.18.43-.31.64-.13"/><path class="cls-7" d="M95.7,55.82a.42.42,0,0,1-.18.61c-1.12.92-4.73,3.84-4.73,3.84H88.35s-.15-.07,0-.15L95,55.77c.25-.13.51-.18.66,0"/><path class="cls-7" d="M94.94,54.3c.08.25-.1.43-.36.53C93.29,55.34,83,59.31,82,59.69c0,0-.08,0-.08,0V57.55s0,0,0,0c.82-.23,11-3.08,12.36-3.43.26,0,.51,0,.59.23"/><path class="cls-7" d="M94.68,52.62c0,.28-.22.38-.5.4L82,53.69a.11.11,0,0,1-.08,0v-2a.11.11,0,0,1,.08-.05l12.16.66c.28,0,.5.13.5.41"/><path class="cls-7" d="M98.4,47.48c-.26.08-.43-.1-.54-.36-.2-.5-.48-1.22-.89-2.31,0-.08,0-.13,0-.13.28,0,.59,0,1,0,0,0,.07,0,.1.08.28,1.07.45,1.68.58,2.16,0,.28,0,.53-.25.61"/><path class="cls-7" d="M96.9,48.27a.42.42,0,0,1-.61-.18c-.49-.58-1.43-1.75-2.42-3,0,0,0-.13,0-.13.33-.05.76-.05,1.19-.13.08,0,.1,0,.1,0,.77,1.2,1.4,2.16,1.76,2.72a.45.45,0,0,1,0,.64"/><path class="cls-7" d="M95.7,49.46c-.15.23-.41.18-.63,0-1.1-.69-4.81-3.13-5.65-3.66,0,0-.08-.13,0-.13s.53-.1.81-.15.77-.13,1-.16a.14.14,0,0,1,.1,0l4.24,3.43a.45.45,0,0,1,.13.61"/><path class="cls-7" d="M94.94,51c-.08.26-.33.31-.61.23-1.4-.35-10-2.77-12.29-3.4-.1,0-.1-.11,0-.16,1.2-.4,3-.89,3-.89l9.53,3.69c.26.1.44.28.36.53"/><path class="cls-7" d="M101.75,57.78c.26-.08.44.1.54.36.2.48.79,2.06.79,2.06s0,.1-.08.1h-.91a.09.09,0,0,1-.08,0s-.38-1.4-.48-1.86c-.08-.28,0-.53.22-.61"/><path class="cls-7" d="M103.26,57c.22-.15.45-.05.61.18l2.44,3s0,.12-.1.12H105a.08.08,0,0,1-.07,0l-1.68-2.59c-.15-.26-.2-.51,0-.66"/><path class="cls-7" d="M104.45,55.82c.15-.23.41-.18.64,0,1.09.68,5.69,3.68,6.76,4.37.1.08,0,.13,0,.13h-2.39s-.08,0-.1,0c-.41-.33-3.64-3-4.68-3.81-.23-.21-.33-.43-.18-.64"/><path class="cls-7" d="M105.21,54.3c.08-.26.33-.31.61-.23,1.4.35,12.34,3.43,12.34,3.43s0,0,0,.1v2.06c0,.05-.08.05-.08.05l-12.56-4.85c-.25-.11-.43-.28-.36-.56"/><path class="cls-7" d="M105.47,52.62c0-.28.23-.38.51-.41l12.15-.66a.11.11,0,0,1,.08.05v2a.11.11,0,0,1-.08,0L106,53c-.28,0-.51-.12-.51-.4"/><path class="cls-7" d="M101.75,47.48c-.25-.08-.3-.33-.22-.61.12-.51.3-1.12.58-2.19,0,0,0,0,0,0,.36,0,.69,0,1,.05a.08.08,0,0,1,.05.1c-.43,1.09-.71,1.83-.89,2.34-.1.25-.28.43-.54.33"/><path class="cls-7" d="M103.26,48.27c-.23-.15-.18-.41,0-.64.36-.56,1-1.5,1.75-2.74,0,0,.06,0,.08,0,.41,0,.84.08,1.2.13a.08.08,0,0,1,0,.13c-1,1.24-2,2.39-2.44,3a.47.47,0,0,1-.61.15"/><path class="cls-7" d="M104.45,49.46c-.15-.22,0-.45.18-.61,1-.86,3.86-3.12,4.22-3.43a.17.17,0,0,1,.1,0c.18,0,.51.08.94.18.28,0,.61.1.84.16.08,0,.08.1,0,.15l-5.65,3.66c-.25.1-.51.13-.66-.08"/><path class="cls-7" d="M100.08,99.72h0c-8.4,0-17.5-4.09-20.5-6.28a2.59,2.59,0,0,1-.66-.66,2.11,2.11,0,0,1-.31-1.1V46.74a1.93,1.93,0,0,1,.33-1.07,1.75,1.75,0,0,1,.89-.66A62,62,0,0,1,100,41.4,67.13,67.13,0,0,1,120.22,45h0a1.8,1.8,0,0,1,.89.63,2.07,2.07,0,0,1,.39,1.07V91.33a2.48,2.48,0,0,1-1,2.16C117.57,95.63,108.47,99.72,100.08,99.72ZM100,42A60.73,60.73,0,0,0,80.06,45.6a1,1,0,0,0-.56.43,1.28,1.28,0,0,0-.23.69V91.66a1.42,1.42,0,0,0,.23.76,2.73,2.73,0,0,0,.48.48c3,2.14,11.88,6.16,20.1,6.16h0c8.24,0,17.14-4,20.09-6.16a1.73,1.73,0,0,0,.69-1.62V46.74a1.25,1.25,0,0,0-.23-.68,1.12,1.12,0,0,0-.59-.41h0A65.73,65.73,0,0,0,100,42Z"/><path class="cls-7" d="M105.21,51c-.07-.25.11-.43.36-.53,1.27-.51,8.67-3.36,9.49-3.66a.27.27,0,0,1,.12,0s1.78.49,3,.89c.08,0,0,.13,0,.16-2.85.78-10.91,3.05-12.31,3.4-.31.08-.56,0-.64-.23"/></g><g id="Dirk_layer" data-name="Dirk layer"><path class="cls-8" d="M81.05,39.57l.64-.2v2a.69.69,0,0,1-.1.38l0,.05a1.37,1.37,0,0,1,.38-.15l.58-.18v.46L81,42.39V39.57Z"/><path class="cls-8" d="M83.7,41.61l-.66.17V39l.66-.18Z"/><path class="cls-8" d="M85.07,38.45a1.35,1.35,0,0,1,.69-.07.45.45,0,0,1,.33.48.83.83,0,0,1-.59.76v.08c.44-.08.66.07.66.51a1,1,0,0,1-.4.81,2.57,2.57,0,0,1-.79.31l-.74.17V38.71Zm-.28.56a.32.32,0,0,1,.1.26v.1a.49.49,0,0,1-.1.3l.08,0a3.24,3.24,0,0,1,.35-.15.41.41,0,0,0,.26-.41.23.23,0,0,0-.21-.25l-.25,0h-.13Zm.1,1.48a.59.59,0,0,1-.1.35l.08,0c.38-.12.66-.2.66-.56a.28.28,0,0,0-.31-.3l-.35,0-.08.08a.37.37,0,0,1,.1.28v.08Z"/><path class="cls-8" d="M86.6,38.07l1.65-.36v.46l-.66.13a1,1,0,0,1-.38,0l-.08.08a.32.32,0,0,1,.1.26v.1a.42.42,0,0,1-.1.28l.08.05a2.43,2.43,0,0,1,.38-.13l.61-.13v.49l-.61.12a1,1,0,0,1-.38,0l-.08.08a.32.32,0,0,1,.1.28V40a.48.48,0,0,1-.1.31l.08.05a1.07,1.07,0,0,1,.38-.13l.69-.15v.46l-1.71.35V38.07Z"/><path class="cls-8" d="M89.6,37.49a1.39,1.39,0,0,1,.76,0,.58.58,0,0,1,.38.61.7.7,0,0,1-.48.71l0,.07L91,40.05l-.79.13-.54-1a.66.66,0,0,1-.28,0l0,.07c.1.11.1.26.1.49v.63l-.66.13v-2.8Zm-.33.53a.4.4,0,0,1,.1.28v.13a.45.45,0,0,1-.1.35l0,0c.18-.07.35-.07.51-.15a.49.49,0,0,0,.28-.43.31.31,0,0,0-.28-.33c-.13,0-.31,0-.51,0Z"/><path class="cls-8" d="M92.34,39.85l-.66.1v-2a.47.47,0,0,1,.11-.3l-.06,0a2.36,2.36,0,0,1-.38.1l-.33.05v-.51L93,37v.51l-.33,0a.81.81,0,0,1-.38,0l0,.08a.36.36,0,0,1,.1.28v2Z"/><path class="cls-8" d="M93.62,36.87l.91-.1.64,2.75-.66.08-.08-.31a.69.69,0,0,1,0-.25l-.05,0a1,1,0,0,1-.38.1.93.93,0,0,1-.41,0l0,0a1.46,1.46,0,0,1,0,.3l-.08.28-.64.08Zm.35.28a4.93,4.93,0,0,1-.3,1.53l0,0a1.3,1.3,0,0,1,.33-.07,1,1,0,0,1,.3,0l.05-.06a4.83,4.83,0,0,1-.28-1.47Z"/><path class="cls-8" d="M97.28,37.36l-.23,0a.56.56,0,0,0-.53-.33c-.23,0-.36.16-.36.31s.36.35.81.53a.76.76,0,0,1,.46.66c0,.49-.41.89-1.07.94a2,2,0,0,1-.86-.12l0-.71.21,0a.69.69,0,0,0,.63.38c.23,0,.38-.15.38-.33s-.3-.33-.61-.46-.63-.43-.63-.76c0-.48.35-.84,1-.86a1.84,1.84,0,0,1,.76.1v.66Z"/><path class="cls-8" d="M99.29,39.32v-2.8h.86a1.64,1.64,0,0,1,.77.13.83.83,0,0,1,.4.76.9.9,0,0,1-1,.94,1.5,1.5,0,0,1-.39-.08l0,.08a.73.73,0,0,1,.1.46v.56ZM99.87,37a.59.59,0,0,1,.08.33v.13a.6.6,0,0,1-.1.41l.05.07a1.93,1.93,0,0,0,.43-.07.43.43,0,0,0,.25-.44.4.4,0,0,0-.38-.43c-.1,0-.2,0-.3,0Z"/><path class="cls-8" d="M101.73,36.54l1.7.11v.45l-.66,0a1.14,1.14,0,0,1-.4-.08l-.08,0a.4.4,0,0,1,.1.28v.1a.46.46,0,0,1-.1.26l.08.07a2.49,2.49,0,0,1,.4,0l.64,0v.49l-.64,0a1,1,0,0,1-.4-.07l-.08.05a.45.45,0,0,1,.1.3v.13a.4.4,0,0,1-.1.28l.08.05a1.67,1.67,0,0,1,.4,0l.71,0v.46l-1.75-.1Z"/><path class="cls-8" d="M104.78,36.75a1.55,1.55,0,0,1,.76.2.79.79,0,0,1,.39.71.53.53,0,0,1-.49.59l0,.07.73,1.38-.78-.08-.54-1.19a.83.83,0,0,1-.28-.08l0,0a.78.78,0,0,1,.1.51v.64l-.68-.08v-2.8Zm-.33.46a.46.46,0,0,1,.1.3v.13a.39.39,0,0,1-.1.33l0,.07c.18,0,.36,0,.51,0a.33.33,0,0,0,.28-.35.44.44,0,0,0-.28-.41c-.13-.05-.3-.05-.51-.13Z"/><path class="cls-8" d="M108.16,37.61l-.66-.1a1.23,1.23,0,0,1-.38-.1l-.08.05a.47.47,0,0,1,.11.3v.11a.32.32,0,0,1-.11.25l.08.08a.81.81,0,0,1,.38,0l.61.07v.49l-.61-.08a2,2,0,0,1-.38-.1l-.08.05a.49.49,0,0,1,.11.33v.87l-.66-.11V36.93l1.67.22v.46Z"/><path class="cls-8" d="M109.21,38.3a5.52,5.52,0,0,1,.17,1.37l.13,0a7.15,7.15,0,0,1,.21-1.32l.22-.92.64.1-.81,2.67-.64-.1-.81-3,.66.1Z"/><path class="cls-8" d="M112.06,38.78a3.82,3.82,0,0,1,.3,1.3l.18,0a9.59,9.59,0,0,1-.13-1.42v-.74l.56.1v2.8l-.66-.12-.61-1.35a2.66,2.66,0,0,1-.26-1l-.17,0a10.73,10.73,0,0,1,.12,1.4v.84l-.56-.1v-2.8l.77.15Z"/><path class="cls-8" d="M114.29,38.35a1.7,1.7,0,0,1,.92.46,1.8,1.8,0,0,1,.43,1.24,1.27,1.27,0,0,1-.38,1.07c-.25.18-.53.15-1,.05l-.73-.18V38.2Zm-.05,1.93a.47.47,0,0,1-.1.36l.08.08c.15,0,.35.07.51,0s.22-.1.22-.61v-.2c0-.44,0-.69-.2-.89s-.41-.18-.53-.26l-.08,0a.64.64,0,0,1,.1.41v1Z"/><path class="cls-8" d="M116,38.78l1.66.43v.46l-.64-.18a1,1,0,0,1-.38-.15l-.08,0a.48.48,0,0,1,.1.31v.1a.24.24,0,0,1-.1.23l.08.07a1.67,1.67,0,0,1,.38.06l.61.15v.48l-.61-.15a1.5,1.5,0,0,1-.38-.15l-.08,0a.51.51,0,0,1,.1.33V41a.32.32,0,0,1-.1.26l.08.08a1.65,1.65,0,0,1,.38.05l.69.17V42l-1.68-.46V38.78Z"/><path class="cls-8" d="M119.18,42.44l-.64-.17v-2a.37.37,0,0,1,.1-.26l0-.07a1,1,0,0,1-.38-.08l-.31-.1v-.51l2,.56v.51l-.33-.1a2.39,2.39,0,0,1-.38-.16l-.05.05a.49.49,0,0,1,.1.31v2Z"/><path class="cls-8" d="M89.29,99.92c-.68-.2-1,.21-1,1.17s.36,1.58,1,1.78a1.47,1.47,0,0,0,.33,0c.49,0,.74-.4.74-1.24A1.65,1.65,0,0,0,89.29,99.92Zm.31,1.53a4.64,4.64,0,0,1,0,.71c0,.18-.13.21-.18.21a.09.09,0,0,1-.08,0c-.25-.08-.33-.33-.33-1s.05-.84.23-.84a.12.12,0,0,1,.08,0C89.52,100.53,89.6,100.79,89.6,101.45Z"/><path class="cls-8" d="M92.55,101.75a4.27,4.27,0,0,0-.13,1.15l-.1,0a7.26,7.26,0,0,0-.1-1.17l-.23-1v0l-.89-.21v2.88l.56.12V102c0-.25,0-.5,0-.81l.1,0a2.53,2.53,0,0,0,.08.66l.38,1.73v0l.4.08.33-1.27a4.61,4.61,0,0,0,.18-.94l.1,0c-.05.46-.07.74-.07.84v1.45l.58.13V101l-.89-.2Z"/><path class="cls-8" d="M96,102.21a12.44,12.44,0,0,0,.1,1.38l-.1,0a3.54,3.54,0,0,0-.31-1.25l-.43-1v0l-.79-.1v2.87l.61.08v-.89a8.19,8.19,0,0,0-.1-1.35l.1,0a2.41,2.41,0,0,0,.26,1l.58,1.3v0l.69.1V101.5l-.61-.08Z"/><polygon class="cls-8" points="97.51 104.45 98.25 104.5 98.25 101.63 97.51 101.58 97.51 104.45"/><path class="cls-8" d="M99.59,101.68l-.73,2.82v0h.68l.08-.3a1.29,1.29,0,0,0,0-.28h0a.88.88,0,0,0,.38,0h0a1.21,1.21,0,0,0,.33,0h0a.36.36,0,0,0,0,.25l.07.33h.71l-.61-2.87Zm.69,1.88a1.42,1.42,0,0,0-.28,0h0a1.23,1.23,0,0,0-.28,0l0,0a5,5,0,0,0,.28-1.45H100a6.92,6.92,0,0,0,.25,1.47Z"/><path class="cls-8" d="M103.94,103.81h0a.9.9,0,0,0,.08-.35v-2l-.71.08v2.87l1.6-.2h0v-.54l-.61.08A1,1,0,0,0,103.94,103.81Z"/><path class="cls-8" d="M106.26,102.16a6.43,6.43,0,0,0-.18,1.27h0a5.41,5.41,0,0,0-.18-1.27l-.25-.94-.72.13.79,2.69v0l.66-.13.79-3-.69.12Z"/><path class="cls-8" d="M108.62,100.53c-.74.18-1.12.79-1.12,1.76a1.67,1.67,0,0,0,.23.94.77.77,0,0,0,.64.33,1.06,1.06,0,0,0,.25,0,1.8,1.8,0,0,0,.76-.44h0v-.68l-.25,0v0c-.13.26-.25.41-.43.46s-.46-.2-.46-.76.18-.94.48-1a.36.36,0,0,1,.41.23l0,0,.25,0v-.76h0A1,1,0,0,0,108.62,100.53Z"/><path class="cls-8" d="M111.06,102.24a1.76,1.76,0,0,0-.35.15h0a.67.67,0,0,0,.08-.3V102a.44.44,0,0,0-.08-.28l0-.05a2.45,2.45,0,0,0,.35,0l.59-.18v-.54L111,101a1.31,1.31,0,0,0-.36.16h0a.71.71,0,0,0,.07-.28v-.11a.43.43,0,0,0-.07-.25l0,0h0a1.88,1.88,0,0,0,.33-.05l.63-.18v-.53l-1.62.48v2.87l1.65-.48v-.53Z"/><path class="cls-8" d="M85.05,99.69a1,1,0,0,1,.55.82.39.39,0,0,1-.58.38,1,1,0,0,1-.56-.81A.42.42,0,0,1,85.05,99.69Z"/><path class="cls-8" d="M115,99.69a.39.39,0,0,1,.56.39.89.89,0,0,1-.59.81.37.37,0,0,1-.55-.38A1,1,0,0,1,115,99.69Z"/><path class="cls-8" d="M79.09,41.25a.44.44,0,0,1,.56.46.76.76,0,0,1-.56.71.44.44,0,0,1-.56-.46A.85.85,0,0,1,79.09,41.25Z"/><path class="cls-8" d="M121,41.27a.8.8,0,0,1,.56.72.43.43,0,0,1-.56.45.77.77,0,0,1-.56-.71A.43.43,0,0,1,121,41.27Z"/><path class="cls-6" d="M99.77,60.48a.08.08,0,1,1,0-.16h.76c0-.35-.07-1.24-.07-1.57,0,0,0-.08.07-.08a.07.07,0,0,1,.08.08c0,.35.08,1.37.1,1.65v.08Z"/><path class="cls-6" d="M100.2,47.4c-.15,0-.38-.07-.4-.5,0-.06,0-.08.07-.08s.08,0,.08.08c0,.35.2.35.25.35s.23-.2.26-.35,0-.54.05-.92l0-1.12a.09.09,0,0,1,.08-.08s.07.06.07.08l0,1.12c0,.36,0,.64,0,.92S100.43,47.4,100.2,47.4Z"/><path class="cls-6" d="M98.25,60.48h-1s-.07,0-.07-.08,0-.08.07-.08h.87c.1-.35.38-1.39.48-1.78,0,0,.05-.07.1,0a.06.06,0,0,1,0,.1c-.1.41-.4,1.58-.48,1.86Z"/><path class="cls-6" d="M94,60.48s-.07,0-.07-.08,0-.08.07-.08h1.25c.23-.35,1.37-2.08,1.65-2.56,0,0,.08-.06.1,0s.06.08,0,.1c-.28.48-1.5,2.34-1.68,2.6l0,0-1.33,0Z"/><path class="cls-6" d="M90.92,60.48H88.45s-.07,0-.07-.08,0-.08.07-.08h2.42c.3-.25,3.61-2.92,4.68-3.81.28-.23.18-.38.15-.41l.13-.07c.08.1.18.33-.18.63-1.12.89-4.68,3.77-4.73,3.82Z"/><path class="cls-6" d="M82.12,59.89a.15.15,0,0,1-.08,0c0-.05,0-.08.06-.1l.4-.15c9.08-3.51,11.62-4.48,12.16-4.71.33-.13.28-.3.25-.35s0-.08,0-.11.08,0,.11,0,.05.39-.36.56L82.55,59.74l-.4.15Z"/><path class="cls-6" d="M82.12,53.86c-.05,0-.08,0-.08-.07a.07.07,0,0,1,.08-.08l12.16-.66c.35,0,.35-.2.35-.25a.08.08,0,0,1,.16,0c0,.15-.08.38-.51.4-1.43.1-12,.66-12.16.66Z"/><path class="cls-6" d="M98.4,47.68c-.13,0-.31-.07-.41-.38s-.25-.68-.46-1.14v0c-.12-.33-.28-.71-.43-1.14,0-.05,0-.08.05-.1s.08,0,.1,0c.18.43.31.81.44,1.14v0c.17.48.33.86.45,1.14s.31.28.36.26.2-.18.13-.44a6,6,0,0,1-.16-.61c-.1-.35-.2-.79-.28-1.09a.12.12,0,0,1,.06-.1.12.12,0,0,1,.1,0c.07.3.2.74.28,1.09s.12.49.15.61c.08.31,0,.54-.23.61A.18.18,0,0,1,98.4,47.68Z"/><path class="cls-6" d="M96.8,48.52a.52.52,0,0,1-.41-.25c-.31-.38-.79-1-1.35-1.68L94,45.27a.09.09,0,0,1,0-.1.07.07,0,0,1,.1,0l1.07,1.32c.56.71,1,1.3,1.35,1.68.15.18.28.23.41.15s.18-.13,0-.43c0,0,0-.08,0-.1a.06.06,0,0,1,.1,0c.23.38.08.56,0,.66A.79.79,0,0,1,96.8,48.52Z"/><path class="cls-6" d="M95.52,49.79a.58.58,0,0,1-.35-.12C94.46,49.21,92.5,48,89.52,46c0,0,0-.08,0-.11s.07,0,.1,0h0l5.64,3.66c.31.2.41.05.44,0s0-.25-.16-.41a.09.09,0,0,1,0-.1.11.11,0,0,1,.11,0c.33.28.25.51.17.64A.31.31,0,0,1,95.52,49.79Z"/><path class="cls-6" d="M94.68,51.4a.64.64,0,0,1-.22,0c-1.17-.3-9-2.47-12.24-3.38l-.07,0a.06.06,0,0,1-.05-.1s.05-.07.1,0l.07,0c3.28.91,11.07,3.1,12.24,3.38.23.05.38,0,.43-.13s0-.25-.26-.35c-.05,0-.05-.05-.05-.11s.05-.05.11-.05c.4.16.4.41.35.54A.41.41,0,0,1,94.68,51.4Z"/><path class="cls-6" d="M111.93,60.48h-2.47l0,0-4.71-3.84a.09.09,0,0,1,0-.1.07.07,0,0,1,.1,0c1.07.86,4.4,3.56,4.68,3.81h2.42s.07,0,.07.08A.08.08,0,0,1,111.93,60.48Z"/><path class="cls-6" d="M118.34,59.92l-.1-.05-1.86-.72c-3.38-1.32-9.69-3.79-10.71-4.12-.18-.05-.43-.12-.35-.53a.09.09,0,0,1,.1-.08s.07,0,.07.11c0,.25.08.3.23.35,1,.33,7.35,2.82,10.74,4.15.81.33,1.44.56,1.75.68V57.78a.07.07,0,0,1,.08-.08s.07,0,.07.08v2.14Z"/><path class="cls-6" d="M118.34,53.89h-.08l-12.16-.66c-.43,0-.5-.26-.5-.41s0-.07.07-.07.08,0,.08.07h0s0,.23.35.26l12.08.66V51.83a.08.08,0,0,1,.16,0Z"/><path class="cls-6" d="M102,47.68s-.1,0-.12,0-.36-.18-.23-.61a.08.08,0,1,1,.15.05c0,.23,0,.38.13.43s.25-.05.35-.25.28-.77.51-1.3l.41-1s0,0,.1,0,0,0,0,.1l-.41,1c-.2.56-.38,1-.5,1.3S102.14,47.68,102,47.68Z"/><path class="cls-6" d="M103.59,48.52a.3.3,0,0,1-.23-.07s0-.08,0-.1.08-.06.1,0,.18.13.41-.15.84-1,1.45-1.78l1-1.22s.08-.05.1,0a.06.06,0,0,1,0,.1l-1,1.22-1.45,1.78A.41.41,0,0,1,103.59,48.52Z"/><path class="cls-6" d="M104.86,49.79a.36.36,0,0,1-.31-.15s0-.07,0-.1.07,0,.1,0,.13.17.43,0L110.68,46l.1-.08a.08.08,0,0,1,.11,0,.07.07,0,0,1,0,.1l-.1.08c-3,1.93-4.86,3.15-5.57,3.58A.59.59,0,0,1,104.86,49.79Z"/><path class="cls-6" d="M105.72,51.4a.37.37,0,0,1-.38-.26s0-.07,0-.1.08,0,.1.05h0c.05.15.18.18.44.13,1.34-.36,11.85-3.28,12.31-3.41.05,0,.07,0,.1,0s0,.08,0,.1c-.46.13-11,3.08-12.31,3.41A1,1,0,0,1,105.72,51.4Z"/><path class="cls-6" d="M106.36,60.48H105l0,0-1.68-2.59a.08.08,0,0,1,0-.1s.07,0,.1,0c.3.48,1.42,2.19,1.65,2.57h1.25s.07,0,.07.08A.08.08,0,0,1,106.36,60.48Z"/><path class="cls-6" d="M102.14,60.48l0-.16c-.11-.38-.39-1.39-.46-1.75a.11.11,0,0,1,.05-.1.12.12,0,0,1,.1.05c.1.35.36,1.37.46,1.75v0H103c-.08-.23-.23-.61-.38-1,0-.05,0-.08,0-.1s.08,0,.1,0c.18.43.36.89.43,1.09l.06.1Z"/><path class="cls-6" d="M80.82,61.6,80.75,47l0,0a59.67,59.67,0,0,1,19-3.33h.66A60.25,60.25,0,0,1,119.51,47l-.05.16a60.58,60.58,0,0,0-19-3.39h-.81A59.25,59.25,0,0,0,80.9,47.07L81,61.55Z"/><path class="cls-9" d="M96.46,52.82A3.83,3.83,0,0,1,100.28,49a3.62,3.62,0,0,1,2.59,1,3.75,3.75,0,0,0-2.77-1.2,3.83,3.83,0,0,0-3.81,3.82,3.77,3.77,0,0,0,1.19,2.77A4,4,0,0,1,96.46,52.82Z"/><path class="cls-10" d="M103.76,52.52A3.82,3.82,0,0,1,100,56.33a3.66,3.66,0,0,1-2.6-1,3.78,3.78,0,0,0,2.78,1.19,3.81,3.81,0,0,0,2.62-6.58A3.93,3.93,0,0,1,103.76,52.52Z"/><path class="cls-9" d="M108.39,88.66a.82.82,0,0,0-.53-.16h-6.94a.4.4,0,0,1-.36-.45h.08c0,.23.1.35.28.38h6.94a.78.78,0,0,1,.58.18Z"/><path class="cls-10" d="M100.08,99.77h0c-8.4,0-17.5-4.09-20.53-6.31a2.38,2.38,0,0,1-.66-.68s0,0,0,0,0,0,0,0a2.49,2.49,0,0,0,.63.66c3,2.19,12.08,6.28,20.48,6.28h0c8.36,0,17.47-4.09,20.47-6.28a2.32,2.32,0,0,0,.94-2.13V46.72a1.9,1.9,0,0,0-.36-1s0-.05,0-.05h.06a1.86,1.86,0,0,1,.38,1.07V91.28a2.49,2.49,0,0,1-1,2.18C117.6,95.65,108.47,99.75,100.08,99.77Z"/><path class="cls-10" d="M100,98.22h0a39.72,39.72,0,0,1-19.61-6s0,0,0,0,0,0,0,0a39.6,39.6,0,0,0,19.56,6h0a39.59,39.59,0,0,0,19.55-6,.9.9,0,0,0,.33-.87v-28a.06.06,0,0,1,.11,0v28a1,1,0,0,1-.36.94A39.87,39.87,0,0,1,100,98.22Z"/><path class="cls-10" d="M99.67,60.25a.05.05,0,0,1,0,0,0,0,0,0,1,0-.05h.79V60c0-.4,0-1.17-.08-1.47a.07.07,0,0,1,0-.05l0,0c0,.31.05,1.07.07,1.48v.2h0l-.84.08Z"/><path class="cls-10" d="M100.08,47.2h0c-.23,0-.36-.18-.39-.48a.07.07,0,0,1,0,0h0s0,0,0,0c0,.26.1.41.28.41h0c.18,0,.28-.13.28-.41s0-.63,0-1.07l.05-.94s0,0,0,0,0,0,0,.05l-.05.94c0,.46,0,.79,0,1.07S100.31,47.2,100.08,47.2Z"/><path class="cls-10" d="M98.07,60.25h-.94a.05.05,0,0,1,0,0,0,0,0,0,1,0-.05H98c0-.21.38-1.4.48-1.81,0,0,0,0,0,0s0,0,0,.06c-.13.43-.49,1.83-.49,1.85S98.09,60.25,98.07,60.25Z"/><path class="cls-10" d="M93.9,60.25a.05.05,0,0,1-.05,0,0,0,0,0,1,.05-.05h1.27c.2-.31,1.37-2.11,1.65-2.57,0,0,0,0,.05,0s0,0,0,.05c-.28.49-1.5,2.34-1.68,2.6l0,0-1.29,0Z"/><path class="cls-10" d="M90.77,60.25H88.33a.05.05,0,0,1,0,0,0,0,0,0,1,0-.05h2.41l4.71-3.82c.2-.18.25-.33.15-.46l.05,0c.13.18.08.38-.15.59-1.07.89-4.55,3.71-4.73,3.84Z"/><path class="cls-10" d="M82,59.66s0,0,0,0,0,0,0,0l.41-.16c9.08-3.51,11.62-4.47,12.15-4.7.26-.1.33-.23.28-.41l0,0h0c.08.2,0,.38-.33.48-.53.2-3.07,1.2-12.15,4.7l-.41.18Z"/><path class="cls-10" d="M82,53.66s0,0,0,0a.13.13,0,0,1,0-.06l12.16-.66c.25,0,.41-.1.41-.28a.05.05,0,0,1,0,0s0,0,0,0c0,.23-.18.35-.48.38L82,53.66Z"/><path class="cls-10" d="M98.3,47.48c-.16,0-.31-.13-.39-.36s-.25-.66-.43-1.11l0-.08c-.13-.33-.28-.71-.44-1.15,0,0,0-.05,0-.05s0,0,0,0c.18.43.31.81.43,1.14l0,.08c.18.46.3.81.43,1.12s.23.33.41.28.23-.2.15-.46-.18-.71-.3-1.14l-.13-.51s0-.05,0-.05,0,0,0,0l.13.51c.13.43.26,1,.31,1.15s0,.48-.21.56Z"/><path class="cls-10" d="M96.69,48.29a.53.53,0,0,1-.38-.22c-.33-.39-.86-1-1.47-1.81-.31-.38-.64-.76-1-1.17a0,0,0,0,1,0-.05s0,0,0,0c.33.41.66.81,1,1.17C95.5,47,96,47.63,96.36,48c.18.21.33.26.46.16s.15-.28,0-.49v0h.05c.15.26.15.46,0,.59A.2.2,0,0,1,96.69,48.29Z"/><path class="cls-10" d="M95.42,49.57a.66.66,0,0,1-.33-.13c-1.19-.76-5.62-3.64-5.64-3.66s0,0,0-.05,0,0,0,0,4.45,2.89,5.64,3.66c.23.15.38.15.49,0s.05-.31-.16-.49c0,0,0,0,0,0s0,0,0,0c.23.21.31.41.16.59A.3.3,0,0,1,95.42,49.57Z"/><path class="cls-10" d="M94.56,51.19a.86.86,0,0,1-.21,0C93,50.81,82.15,47.79,82,47.76s0,0,0,0,0,0,0,0S93,50.74,94.38,51.09c.25.08.41,0,.46-.15s0-.31-.28-.41c0,0,0,0,0-.05s0,0,0,0c.28.1.41.28.33.48A.32.32,0,0,1,94.56,51.19Z"/><path class="cls-10" d="M111.83,60.25h-2.47c-.31-.23-4.81-3.89-4.81-3.89a.35.35,0,0,1-.07-.51l0,0a.29.29,0,0,0,0,.41h0l4.8,3.89h2.42a0,0,0,0,1,0,0S111.83,60.25,111.83,60.25Z"/><path class="cls-10" d="M118.16,59.66h0l-.26-.1-12.3-4.75c-.18-.08-.46-.18-.34-.51,0,0,0,0,.06,0s0,0,0,0c-.08.23.08.31.28.41,1.83.71,5.44,2.11,12.31,4.75l.2.08v-2a.06.06,0,0,1,.11,0v2.06c-.06,0-.06,0-.08,0Z"/><path class="cls-10" d="M118.16,53.66h0c-1.25-.08-10.84-.58-12.16-.66-.3,0-.48-.15-.48-.36a.05.05,0,0,1,0,0,.07.07,0,0,1,.05,0h0c0,.18.13.28.41.28l12.13.66v-2a.05.05,0,0,1,.1,0v2Z"/><path class="cls-10" d="M101.88,47.48a.2.2,0,0,1-.1,0c-.2-.08-.28-.28-.2-.56,0,0,0,0,0,0s0,0,0,.05c-.07.26,0,.41.16.46s.3-.05.4-.28.26-.64.44-1.09l.48-1.25s0,0,.05,0,0,0,0,.05L102.72,46c-.18.46-.3.81-.43,1.09S102,47.48,101.88,47.48Z"/><path class="cls-10" d="M103.46,48.29a.31.31,0,0,1-.2-.07s0,0,0,0,0,0,0,0,.3,0,.45-.16c.31-.38.84-1,1.43-1.75l1-1.25s.05,0,.05,0,0,.05,0,.05l-1,1.25c-.59.74-1.12,1.37-1.43,1.76A.42.42,0,0,1,103.46,48.29Z"/><path class="cls-10" d="M104.73,49.57a.3.3,0,0,1-.25-.13v0s0,0,0,0,.28.15.48,0c1.09-.69,4.91-3.18,5.65-3.66h0v.05c-.77.48-4.58,3-5.67,3.66A.39.39,0,0,1,104.73,49.57Z"/><path class="cls-10" d="M105.6,51.19a.34.34,0,0,1-.36-.23s0-.05,0-.05.06,0,.06,0h0q.08.27.45.15c1.4-.35,12.21-3.38,12.31-3.41s0,0,0,0,0,0,0,0-10.91,3.05-12.31,3.41Z"/><path class="cls-10" d="M80.72,78.59h0a.06.06,0,0,1,0-.06V73.37a.44.44,0,0,1,.36-.46h6.89a.28.28,0,0,1,.2.08.32.32,0,0,1,.08.23.06.06,0,0,1,0,0,.05.05,0,0,1-.05,0A.23.23,0,0,0,88,73a.18.18,0,0,0-.15-.05H81a.37.37,0,0,0-.28.38v5.16C80.77,78.56,80.75,78.59,80.72,78.59Z"/><path class="cls-10" d="M82.53,92.45a.05.05,0,0,1,0,0V80c0-.28.15-.46.4-.46h1.53c.28,0,.41.18.41.48a.05.05,0,0,1,0,0,.06.06,0,0,1-.06,0c0-.25-.1-.38-.33-.4H82.86c-.23,0-.33.12-.33.38V92.4S82.55,92.45,82.53,92.45Z"/><path class="cls-10" d="M87.11,94.56a.06.06,0,0,1-.06,0V80a.38.38,0,0,1,.41-.43H89c.28,0,.41.17.41.45a.05.05,0,0,1-.05,0h0a0,0,0,0,1,0,0c0-.25-.1-.38-.33-.38h-1.5c-.23,0-.33.13-.33.36V94.51S87.11,94.56,87.11,94.56Z"/><path class="cls-10" d="M91.61,95.91a.06.06,0,0,1,0-.06V80a.42.42,0,0,1,.4-.48h1.53a.38.38,0,0,1,.41.43.07.07,0,0,1,0,0h0s0,0-.05,0a.32.32,0,0,0-.33-.36H92c-.23,0-.33.13-.33.41V95.88S91.63,95.91,91.61,95.91Z"/><path class="cls-10" d="M96.19,96.9a.06.06,0,0,1-.06-.05V79.93a.42.42,0,0,1,.41-.43H98c.28,0,.41.18.41.48a.05.05,0,0,1,0,0,0,0,0,0,1-.05,0c0-.25-.1-.38-.33-.4h-1.5a.31.31,0,0,0-.34.35V96.85A0,0,0,0,1,96.19,96.9Z"/><path class="cls-10" d="M92,78.59a.06.06,0,0,1,0-.06V73.22A.32.32,0,0,1,92,73a.3.3,0,0,1,.21-.08h7a.4.4,0,0,1,.33.44.06.06,0,0,1,0,.05.05.05,0,0,1,0-.05.32.32,0,0,0-.26-.36h-7A.44.44,0,0,0,92,73a.23.23,0,0,0-.08.18v5.31C92,78.59,92,78.59,92,78.59Z"/><path class="cls-10" d="M80.7,61.42a.05.05,0,0,1,0-.05V47s0,0,0,0h0A59.89,59.89,0,0,1,99.9,43.49,65.16,65.16,0,0,1,119.3,47h0s0,0,0,0,0,0,0,0h0A65.26,65.26,0,0,0,99.9,43.56,59.51,59.51,0,0,0,80.72,47v14.4S80.72,61.42,80.7,61.42Z"/><path class="cls-10" d="M80.75,69.05a.05.05,0,0,1,0,0V63.94c0-.28.12-.46.35-.46h6.87a.42.42,0,0,1,.33.43.05.05,0,0,1,0,.05,0,0,0,0,1,0-.05.33.33,0,0,0-.26-.36H81c-.18,0-.28.13-.28.39V69S80.77,69.05,80.75,69.05Z"/><path class="cls-10" d="M80.72,72a.06.06,0,0,1,0,0V70.42a.4.4,0,0,1,.43-.35h7.07a.63.63,0,0,0,.72-.72V63.81a.37.37,0,0,1,.4-.36h1.5c.28,0,.44.18.44.49a.06.06,0,0,1-.11,0c0-.26-.1-.39-.35-.41h-1.5a.29.29,0,0,0-.33.28v5.52a.7.7,0,0,1-.79.79H81.08c-.23,0-.33.1-.36.28v1.47S80.75,72,80.72,72Z"/><path class="cls-10" d="M99.52,70.4s0,0,0,0-.15-.2-.35-.2H92a.78.78,0,0,1-.63-.23s0,0,0,0,.05,0,.05,0a.79.79,0,0,0,.58.2h7.13a.4.4,0,0,1,.43.28s0,0,0,0Z"/><path class="cls-10" d="M92,69.12a0,0,0,0,1,0-.05V63.83c0-.17.07-.38.48-.38h6.82a.42.42,0,0,1,.33.43.06.06,0,0,1,0,.06.06.06,0,0,1,0-.06.31.31,0,0,0-.26-.35H92.42c-.28,0-.41.1-.41.3v5.24S92,69.12,92,69.12Z"/><path class="cls-10" d="M111.65,85.38a.05.05,0,0,1-.05,0v-5.5a.35.35,0,0,1,.33-.33h7.12c.18,0,.25.15.28.36,0,0,0,0,0,0s0,0,0,0a.3.3,0,0,0-.23-.28h-7.09a.29.29,0,0,0-.26.26v5.47A.12.12,0,0,1,111.65,85.38Z"/><path class="cls-10" d="M115.41,78.56a.06.06,0,0,1,0,0V63.91a.39.39,0,0,1,.43-.43h1.48c.28,0,.43.18.43.48a0,0,0,0,1,0,.05.05.05,0,0,1-.05-.05.36.36,0,0,0-.36-.41h-1.47c-.23,0-.33.13-.36.36v14.6S115.44,78.56,115.41,78.56Z"/><path class="cls-10" d="M110.86,78.53a0,0,0,0,1,0,0V64a.42.42,0,0,1,.43-.48h1.5a.4.4,0,0,1,.43.43,0,0,0,1,1-.07,0,.36.36,0,0,0-.36-.36h-1.5c-.23,0-.35.13-.35.41V78.51S110.89,78.53,110.86,78.53Z"/><path class="cls-10" d="M106.36,78.53a0,0,0,0,1,0,0V63.91a.41.41,0,0,1,.43-.46h1.47a.42.42,0,0,1,.44.43.1.1,0,0,1,0,.06h0s-.05,0-.05,0a.32.32,0,0,0-.36-.36h-1.47c-.23,0-.33.13-.36.39V78.51A0,0,0,0,1,106.36,78.53Z"/><path class="cls-10" d="M101.78,78.53a.08.08,0,0,1,0,0V64c0-.31.15-.49.43-.49h1.5c.28,0,.43.18.43.49a.05.05,0,0,1,0,.05A.06.06,0,0,1,104,64c0-.26-.1-.38-.35-.41h-1.5c-.23,0-.36.13-.36.41V78.48S101.81,78.53,101.78,78.53Z"/><path class="cls-10" d="M100.58,85.38a.06.06,0,0,1,0,0V80c0-.28.13-.43.33-.46h6.72a.36.36,0,0,1,.28.38.07.07,0,0,1,0,.05l0,0c0-.18-.07-.28-.23-.33h-6.69c-.17,0-.25.15-.25.38v5.39S100.61,85.38,100.58,85.38Z"/><path class="cls-10" d="M100.58,97.18a.06.06,0,0,1,0-.05V89.62a.45.45,0,0,1,.28-.45h6.77a.29.29,0,0,1,.3.3,0,0,0,0,1,0,0,.05.05,0,0,1,0,0,.2.2,0,0,0-.2-.23h-6.77c-.15.05-.2.18-.2.38v7.51S100.61,97.18,100.58,97.18Z"/><path class="cls-10" d="M100.58,88.07s0,0,0,0V86.77a.39.39,0,0,1,.39-.45h6.94a.63.63,0,0,0,.71-.72V79.88c0-.23.13-.35.33-.38h1.68a.41.41,0,0,1,.36.46.06.06,0,0,1-.11,0c0-.23-.1-.36-.28-.38H108.9c-.15,0-.23.12-.25.3v5.75a.7.7,0,0,1-.79.79h-6.94c-.21,0-.31.15-.31.38v1.25s0,0,0,0Z"/><path class="cls-10" d="M108.6,96.08a0,0,0,0,1,0,0V89.19a.66.66,0,0,0-.18-.53s0,0,0,0,0,0,0,0a.81.81,0,0,1,.2.61V96S108.62,96.08,108.6,96.08Z"/><path class="cls-10" d="M119.3,86.75s0,0,0,0a.31.31,0,0,0-.35-.3h-7.28a.87.87,0,0,1-.61-.18s0,0,0,0,0,0,0,0a.87.87,0,0,0,.54.18h7.27a.38.38,0,0,1,.43.38s0,0,0,0Z"/><path class="cls-10" d="M111.65,95.09a0,0,0,0,1-.05,0V89.5a.28.28,0,0,1,.3-.31h7a.38.38,0,0,1,.43.38.08.08,0,0,1,0,.05s0,0,0,0a.32.32,0,0,0-.36-.31h-7a.21.21,0,0,0-.2.23v5.55A.08.08,0,0,0,111.65,95.09Z"/><path class="cls-10" d="M79.5,92.45s0,0,0,0a1.48,1.48,0,0,1-.23-.79V46.69a1.19,1.19,0,0,1,.23-.71,1.49,1.49,0,0,1,.58-.46A61.59,61.59,0,0,1,100,41.94a67.93,67.93,0,0,1,20.1,3.58h0a1.41,1.41,0,0,1,.59.43.06.06,0,0,1,0,.06,0,0,0,0,1-.05,0,1.48,1.48,0,0,0-.56-.41h0A66.68,66.68,0,0,0,100,42,60.51,60.51,0,0,0,80.09,45.6a1.11,1.11,0,0,0-.56.41,1.28,1.28,0,0,0-.21.66V91.61a1.44,1.44,0,0,0,.21.73c0,.08,0,.11,0,.11Z"/><path class="cls-10" d="M80.62,62h0l0-.05V62a.51.51,0,0,1-.56-.48.1.1,0,0,1,0-.06.07.07,0,0,1,0,0,.43.43,0,0,0,.48.43h38.84a.4.4,0,0,0,.43-.4V46.77c0-.15-.2-.26-.2-.26s0,0,0,0,0,0,.06,0a.43.43,0,0,1,.22.33V61.55a.5.5,0,0,1-.5.48Z"/><path class="cls-10" d="M106.26,60.25H105s0,0,0,0c-.28-.43-1.37-2.11-1.67-2.59v-.05h0L105,60.15h1.28a.05.05,0,0,1,0,.05S106.28,60.25,106.26,60.25Z"/><path class="cls-10" d="M102.09,60.25s0,0,0,0l0-.15c-.1-.41-.36-1.35-.46-1.7,0,0,0-.06,0-.06s0,0,0,0c.1.36.33,1.3.46,1.7l0,.13H103l-.41-1s0-.05,0-.05.05,0,.05,0l.43,1.1v0l0,0Z"/><path class="cls-9" d="M99.75,46.74s0,0-.06,0c0-.28,0-.59,0-1s0-.63,0-1.07v0h.92a.05.05,0,0,1,0,.05.06.06,0,0,1,0,0h-.84c0,.41,0,.74,0,1s0,.68,0,1Z"/><path class="cls-9" d="M93.9,60.25h0c-.05,0-.05,0,0-.08,1.27-1.58,2.14-2.64,2.42-3s.4-.31.58-.16.18.33,0,.61c0,0,0,0-.05,0s0,0,0,0c.15-.23.15-.38,0-.48s-.31,0-.49.15-1.14,1.4-2.41,3Z"/><path class="cls-9" d="M88.35,60.25s0,0,0,0v0c1.42-.91,5.72-3.71,6.76-4.37.26-.16.46-.16.59,0a0,0,0,0,1,0,0h-.05c-.11-.15-.28-.15-.49,0-1,.66-5.34,3.46-6.79,4.38Z"/><path class="cls-9" d="M82,59.66a0,0,0,0,1,0,0V57.55s0,0,0,0h0c2.57-.72,11.09-3.11,12.31-3.41.3-.08.48,0,.56.2,0,0,0,0,0,0s0,0,0,0c0-.18-.2-.23-.46-.16-1.22.31-9.74,2.7-12.31,3.41h0v2A0,0,0,0,1,82,59.66Z"/><path class="cls-9" d="M82,53.66a0,0,0,0,1,0,0v-2s0,0,0,0l12.16.66c.31,0,.48.15.48.36a.05.05,0,0,1,0,.05.06.06,0,0,1,0-.05c0-.18-.13-.28-.41-.28L82,51.68v2C82,53.64,82,53.66,82,53.66Z"/><path class="cls-9" d="M98.12,45.24s0,0,0,0,0,0-.12-.46c-.34,0-.64,0-.92.05a.07.07,0,0,1,0,0,.12.12,0,0,1,0-.05c.28,0,.61,0,1,0h0s0,0,0,0a2.81,2.81,0,0,0,.13.46s0,0,0,.07Z"/><path class="cls-9" d="M96.87,47.68a0,0,0,0,1,0,0c-.26-.38-.61-.94-1.07-1.63L95.09,45c-.43,0-.86.08-1.17.13,0,0,0,0,0,0s0-.05,0-.05c.33,0,.73-.07,1.19-.12,0,0,0,0,0,0l.71,1.1c.46.71.81,1.24,1.07,1.62,0,0,0,0,0,0Z"/><path class="cls-9" d="M95.5,48.93h0l-4.25-3.46-.18,0c-.23,0-.48.07-.76.12l-.84.16s0,0,0,0,0,0,0,0c.2-.05.55-.1.83-.15l.77-.13.2,0h0C92,46,94.56,48,95.52,48.83c0,0,0,.05,0,.05S95.5,48.93,95.5,48.93Z"/><path class="cls-9" d="M94.56,50.53h0C93.29,50,85.88,47.2,85,46.87c-.33.1-1.91.53-3,.89,0,0-.05,0-.05,0s0,0,0,0c1.07-.35,2.67-.81,3-.89h0c.81.31,8.26,3.18,9.51,3.69,0,0,0,0,0,.05Z"/><path class="cls-9" d="M111.83,60.25h0c-1.55-1-5.78-3.74-6.79-4.38-.23-.15-.39-.15-.49,0s0,0,0,0,0,0,0,0,.33-.18.61,0c1,.63,5.22,3.38,6.77,4.37,0,0,0,0,0,0Z"/><path class="cls-9" d="M118.16,57.6h0c-1.86-.51-11.09-3.1-12.36-3.43-.26-.08-.41,0-.46.15l-.08,0c.08-.21.28-.28.56-.21,1.28.33,10.51,2.9,12.36,3.44,0,0,0,0,0,0Z"/><path class="cls-9" d="M105.54,52.67a.06.06,0,0,1-.05-.05c0-.23.18-.36.49-.36l12.15-.66a.07.07,0,0,1,.05,0,.12.12,0,0,1,0,0L106,52.34c-.25,0-.4.1-.4.28A.06.06,0,0,1,105.54,52.67Z"/><path class="cls-9" d="M101.6,47h0s0,0,0-.05l.25-1,0-.18c.08-.3.18-.63.28-1,0,0,0,0,0,0,.33,0,.66,0,.94,0,0,0,0,0,0,.05s0,.06-.05,0c-.28,0-.59,0-.92-.05-.1.38-.2.71-.28,1l-.05.17-.25,1Z"/><path class="cls-9" d="M103.28,48.24c-.18-.12-.18-.33,0-.61l1-1.5c.23-.38.51-.79.79-1.22l0,0c.45,0,.89.1,1.19.12,0,0,0,0,0,.05s0,0-.05,0C105.9,45,105.47,45,105,45l-.79,1.22-1,1.5c-.15.23-.15.39,0,.49Z"/><path class="cls-9" d="M104.5,49.46a0,0,0,0,1,0,0c-.13-.18-.08-.38.15-.59,1-.86,3.92-3.18,4.25-3.46h0l.21,0c.22,0,.48.08.76.13l.84.15s0,0,0,0,0,0,0,0c-.2-.05-.56-.11-.84-.16s-.53-.1-.76-.12l-.18,0-4.22,3.43c-.2.18-.25.34-.15.46s0,.08,0,.1S104.53,49.46,104.5,49.46Z"/><path class="cls-9" d="M105.29,51s0,0,0,0c-.07-.2.06-.38.34-.48,1.34-.53,9.43-3.64,9.53-3.69h0c.43.13,2,.54,3,.89,0,0,0,0,0,0s0,0-.05,0c-1-.33-2.51-.76-3-.89l-9.51,3.66c-.26.1-.33.23-.28.41-.05,0-.05,0-.08.05Z"/><path class="cls-9" d="M80.44,92.24h0a1,1,0,0,1-.38-.73h0v-.34h0V63.43a.51.51,0,0,1,.56-.56h38.84a.5.5,0,0,1,.53.4s0,.06,0,.06-.06,0-.06,0a.43.43,0,0,0-.45-.36H80.59a.44.44,0,0,0-.48.49V91.2h0v.25h0a.78.78,0,0,0,.33.69s0,0,0,0S80.44,92.24,80.44,92.24Z"/><path class="cls-9" d="M88,79H81a.4.4,0,0,1-.3-.44.05.05,0,0,1,0,0,.06.06,0,0,1,0,0c0,.21.07.31.23.36H88a.3.3,0,0,0,.2-.25v-5.4a.06.06,0,0,1,.11,0v5.4A.49.49,0,0,1,88,79Z"/><path class="cls-9" d="M84.56,93.79h-.07c-.61-.28-1.2-.58-1.73-.86a.59.59,0,0,1-.23-.51.12.12,0,0,1,0,0h0a.07.07,0,0,1,0,0,.49.49,0,0,0,.21.43c.53.28,1.09.58,1.7.86a.26.26,0,0,0,.2,0,.31.31,0,0,0,.08-.26V80a.05.05,0,0,1,0-.05,0,0,0,0,1,0,.05V93.44a.42.42,0,0,1-.1.33Z"/><path class="cls-9" d="M89.09,95.6H89c-.56-.18-1.12-.38-1.66-.58a.62.62,0,0,1-.28-.49s0,0,0,0h0s0,0,0,0a.4.4,0,0,0,.23.4c.53.21,1.09.41,1.65.59a.25.25,0,0,0,.21,0,.33.33,0,0,0,.07-.25V80a.05.05,0,0,1,0,0,0,0,0,0,1,0,0V95.22a.35.35,0,0,1-.12.3A.23.23,0,0,1,89.09,95.6Z"/><path class="cls-9" d="M93.64,96.87h0c-.56-.13-1.12-.25-1.65-.41a.53.53,0,0,1-.33-.55v-.06s0,0,0,0,.05,0,.05,0v0a.52.52,0,0,0,.28.48,15.37,15.37,0,0,0,1.66.38c.07,0,.15,0,.17,0a.27.27,0,0,0,.08-.23V79.91a.05.05,0,0,1,0,0,0,0,0,0,1,0,0V96.46a.57.57,0,0,1-.1.31A.33.33,0,0,1,93.64,96.87Z"/><path class="cls-9" d="M98.19,97.53h-.12l-.18,0c-.33,0-1-.1-1.37-.16a.48.48,0,0,1-.39-.5.07.07,0,0,1,0,0h0s0,0,0,0a.45.45,0,0,0,.33.43c.38,0,1,.1,1.37.13l.18,0h.13c.08,0,.18-.06.18-.31V80a0,0,0,0,1,0,0,.05.05,0,0,1,0,0V97.13C98.47,97.46,98.32,97.53,98.19,97.53Z"/><path class="cls-9" d="M99.29,79h-7a.4.4,0,0,1-.31-.44.06.06,0,0,1,.05,0,.05.05,0,0,1,0,0,.32.32,0,0,0,.23.36h7a.26.26,0,0,0,.2-.23V73.37a.06.06,0,0,1,.05-.05.05.05,0,0,1,0,.05v5.29a.51.51,0,0,1-.3.31Z"/><path class="cls-9" d="M89.22,79a.3.3,0,0,1-.21-.08.34.34,0,0,1-.07-.25,0,0,0,0,1,0,0h0a.05.05,0,0,1,.05,0c0,.07,0,.15.07.17a.22.22,0,0,0,.16.06h1.8a.35.35,0,0,0,.18-.36V72.94a.69.69,0,0,1,.79-.79h7.17a.32.32,0,0,0,.33-.2V70.34a.06.06,0,0,1,0,0,.05.05,0,0,1,0,0V72h0c0,.18-.17.25-.4.28H92.06a.62.62,0,0,0-.71.71v5.57a.4.4,0,0,1-.23.43h-1.9Z"/><path class="cls-9" d="M80.09,61.57a.06.06,0,0,1-.06,0V46.72a.48.48,0,0,1,.08-.18.43.43,0,0,1,.15-.13A60.33,60.33,0,0,1,99.9,42.88a65.65,65.65,0,0,1,19.81,3.56s0,0,0,.05,0,0,0,0A66,66,0,0,0,99.9,43a60.13,60.13,0,0,0-19.61,3.54h0a.24.24,0,0,0-.13.1.25.25,0,0,0,0,.15V61.52S80.11,61.57,80.09,61.57Z"/><path class="cls-9" d="M119.33,61.42H80.7a.05.05,0,0,1,0-.05,0,0,0,0,1,0,0h38.58V47a.05.05,0,0,1,0,0,.06.06,0,0,1,0,0v14.4S119.35,61.42,119.33,61.42Z"/><path class="cls-9" d="M87.94,69.4h-7a.39.39,0,0,1-.23-.4,0,0,0,0,1,0,0,.05.05,0,0,1,0,0,.32.32,0,0,0,.18.33h7a.44.44,0,0,0,.15,0,.25.25,0,0,0,.08-.18V63.91h.08V69.1a.32.32,0,0,1-.08.23A.56.56,0,0,1,87.94,69.4Z"/><path class="cls-9" d="M88.81,72.48s0,0,0,0a.74.74,0,0,0-.58-.21H81.1a.41.41,0,0,1-.43-.35s0-.05,0-.05,0,0,0,0c0,.18.12.28.35.28h7.1a.77.77,0,0,1,.63.23c0,.05,0,.08,0,.1S88.83,72.48,88.81,72.48Z"/><path class="cls-9" d="M91.38,69.94a0,0,0,0,1,0,0,.85.85,0,0,1-.15-.56V63.94a.06.06,0,0,1,0-.06.06.06,0,0,1,0,.06v5.44a.78.78,0,0,0,.15.51s0,0-.07,0Z"/><path class="cls-9" d="M92.24,69.4a.29.29,0,0,1-.2-.07A.32.32,0,0,1,92,69.1a.05.05,0,0,1,.05,0,0,0,0,0,1,0,0,.25.25,0,0,0,.08.18.18.18,0,0,0,.15,0h7a.28.28,0,0,0,.26-.26V63.91a0,0,0,0,1,0,0,.05.05,0,0,1,.05,0v5.16c-.05.21-.15.31-.33.33Z"/><path class="cls-9" d="M119,85.66h-7.14a.3.3,0,0,1-.21-.08.32.32,0,0,1-.07-.23.05.05,0,0,1,.05,0,.06.06,0,0,1,0,0,.21.21,0,0,0,.08.18.18.18,0,0,0,.15,0h7.14a.27.27,0,0,0,.23-.25V79.88a.06.06,0,0,1,.11,0v5.45a.7.7,0,0,1-.39.33Z"/><path class="cls-9" d="M115.77,79a.42.42,0,0,1-.38-.44.12.12,0,0,1,0,0h0s0,0,0,0a.32.32,0,0,0,.31.36h1.58a.34.34,0,0,0,.3-.39V64a.06.06,0,0,1,0-.05.05.05,0,0,1,0,.05V78.51c0,.28-.12.46-.38.48Z"/><path class="cls-9" d="M111.22,79c-.26,0-.39-.18-.39-.49a.06.06,0,0,1,.11,0q0,.39.3.39h1.6c.18,0,.28-.13.31-.36V63.88a0,0,0,1,1,.1,0V78.51c0,.25-.15.41-.38.41Z"/><path class="cls-9" d="M106.69,79a.4.4,0,0,1-.38-.46.08.08,0,0,1,0-.05h0a0,0,0,0,1,0,.05.33.33,0,0,0,.31.38h1.58c.2,0,.28-.13.3-.36V63.94a.06.06,0,0,1,.05-.06.06.06,0,0,1,0,.06V78.53a.41.41,0,0,1-.38.44Z"/><path class="cls-9" d="M102.14,79c-.26,0-.39-.18-.39-.49a.06.06,0,0,1,.11,0q0,.39.3.39h1.6a.34.34,0,0,0,.31-.39V64a.05.05,0,1,1,.1,0V78.48a.43.43,0,0,1-.38.49Z"/><path class="cls-9" d="M107.6,85.66h-6.74a.33.33,0,0,1-.3-.28s0,0,0,0,.06,0,.06,0a.27.27,0,0,0,.22.23h6.74a.43.43,0,0,0,.16,0,.23.23,0,0,0,.07-.18V79.93a.06.06,0,0,1,.11,0v5.42a.32.32,0,0,1-.08.23A.59.59,0,0,1,107.6,85.66Z"/><path class="cls-9" d="M101,97.56h0c-.33,0-.51-.15-.51-.43a.05.05,0,0,1,0,0,.06.06,0,0,1,.06,0c0,.25.12.35.4.35h0a35.57,35.57,0,0,0,6.51-1,.37.37,0,0,0,.28-.31V89.47a0,0,0,0,1,.1,0v6.74a.4.4,0,0,1-.33.36,31.91,31.91,0,0,1-6.59,1Z"/><path class="cls-9" d="M108.83,96.26a.28.28,0,0,1-.26-.23s0,0,0,0,.05,0,.05,0a.18.18,0,0,0,.18.18h0c.61-.18,1.22-.36,1.81-.56,0,0,0,0,0,0s0,0,0,0c-.61.21-1.22.38-1.83.56Z"/><path class="cls-9" d="M110.66,95.73s0,0,0,0,0,0,0,0a.32.32,0,0,0,.2-.25V89.22a.69.69,0,0,1,.79-.79h7.4a.31.31,0,0,0,.23-.26V86.72a.05.05,0,0,1,0,0,.06.06,0,0,1,0,0V88.2a.39.39,0,0,1-.28.33h-7.43a.62.62,0,0,0-.71.71v6.21a.82.82,0,0,1-.3.28Z"/><path class="cls-9" d="M111.06,86.24h0a.83.83,0,0,1-.21-.61V80a.06.06,0,0,1,.11,0v0h0v5.62a.66.66,0,0,0,.17.53s0,.06,0,.06S111.09,86.24,111.06,86.24Z"/><path class="cls-9" d="M111.85,95.29a.19.19,0,0,1-.13-.05.3.3,0,0,1-.1-.2s0-.05,0-.05,0,0,0,0a.17.17,0,0,0,.08.15s.07,0,.15,0a31.5,31.5,0,0,0,7.3-3.56.18.18,0,0,0,0-.15V89.55a0,0,0,0,1,0,0,.05.05,0,0,1,0,0v1.93c0,.15,0,.18-.1.23A32.35,32.35,0,0,1,112,95.29Z"/><path class="cls-9" d="M78.94,92.8s0,0,0,0a2.15,2.15,0,0,1-.33-1.12V46.72a2,2,0,0,1,.35-1.1,1.87,1.87,0,0,1,.92-.68A62,62,0,0,1,100,41.33,67.73,67.73,0,0,1,120.3,45h0a1.88,1.88,0,0,1,.92.66,0,0,0,0,1,0,.05s0,0,0,0a2,2,0,0,0-.87-.63h0A68,68,0,0,0,100,41.43,62,62,0,0,0,79.91,45a1.73,1.73,0,0,0-.87.66,1.92,1.92,0,0,0-.33,1V91.68a2.43,2.43,0,0,0,.31,1.1s0,0-.08,0Z"/><path class="cls-9" d="M100.08,99.11h0c-8.24,0-17.2-4-20.15-6.18a3.11,3.11,0,0,1-.48-.48s0,0,0,0,0,0,0,0a2,2,0,0,0,.48.48C83,95,91.86,99.06,100.08,99.06h0c8.21,0,17.14-4,20.06-6.16a1.8,1.8,0,0,0,.69-1.6V46.74a1.2,1.2,0,0,0-.23-.66s0,0,0,0h.05a1.31,1.31,0,0,1,.26.69V91.25a1.81,1.81,0,0,1-.72,1.65C117.27,95.07,108.32,99.08,100.08,99.11Z"/><path class="cls-9" d="M106.26,60.25a0,0,0,0,1,0,0c-.51-.61-2-2.49-2.44-3-.18-.21-.33-.26-.46-.16s-.15.28,0,.49v.05h0c-.15-.26-.15-.46,0-.59s.38-.07.58.16c.41.5,1.93,2.36,2.44,3,0,0,0,0-.07.08Z"/><path class="cls-9" d="M102.59,59.15s0,0,0,0l-.38-.94c-.1-.26-.23-.33-.41-.28s-.23.2-.15.46c0,0,0,.05,0,.05s0,0,0,0c-.07-.3,0-.48.2-.56s.36,0,.51.33.23.56.39.94a.06.06,0,0,1-.06,0Z"/><path class="cls-9" d="M99.67,60.25h0a.05.05,0,0,1,0,0v-.1c0-.36.07-1.23.07-1.58s.16-.48.36-.48.36.17.38.48a.12.12,0,0,1,0,0h0s0,0,0,0c0-.25-.11-.4-.28-.4s-.28.12-.31.4-.08,1.2-.08,1.58v.1S99.67,60.25,99.67,60.25Z"/><path class="cls-9" d="M97.15,60.25h0s-.05,0,0,0c.17-.49.63-1.66.78-2.06s.28-.41.49-.33.28.28.2.56c0,0,0,0,0,0s0,0,0,0c.08-.25,0-.41-.15-.46s-.3,0-.4.28c-.16.41-.62,1.58-.79,2.06A0,0,0,0,1,97.15,60.25Z"/></g><rect class="cls-11" width="200" height="200"/></svg>