<svg xmlns="http://www.w3.org/2000/svg" viewBox="0 0 512 640" x="0px" y="0px"><title>10 chromosome research</title><path d="M271.486,237.4a19.967,19.967,0,0,1,15.767,17.579,8,8,0,0,0,7.955,7.249q.378,0,.762-.036a8,8,0,0,0,7.213-8.717,36.08,36.08,0,0,0-28.5-31.753,8,8,0,1,0-3.194,15.678Z"/><path d="M309.365,177.41a31.522,31.522,0,0,0,31.415-29.376l59.468-11.4c.115.232.227.465.35.695a23.523,23.523,0,0,0,43.258-4.237h0a23.523,23.523,0,1,0-45.013-13.681c-.128.421-.241.844-.345,1.268l-60.736,11.639a31.5,31.5,0,0,0-58.548,22.749h0A31.355,31.355,0,0,0,292.669,172.6L281.637,198.68a59.819,59.819,0,0,0-58.944,18.58L198.98,202.445a8,8,0,0,0-8.478,13.57l23.277,14.542a59.748,59.748,0,0,0-1.795,48.583l-29.025,16.465a31.486,31.486,0,0,0-52.67,31.141h0A31.542,31.542,0,0,0,160.383,349.1a31.608,31.608,0,0,0,9.2-1.376,31.482,31.482,0,0,0,21.278-38.2l29.017-16.46a59.854,59.854,0,0,0,24.492,18.968,8,8,0,1,0,6.2-14.751,43.846,43.846,0,0,1,32.277-81.515c.071.033.138.071.211.1a7.929,7.929,0,0,0,.762.278,43.875,43.875,0,0,1,24.423,56.924c-.08.178-.147.364-.215.549a43.94,43.94,0,0,1-36.394,26.865,8,8,0,0,0,.742,15.964c.252,0,.506-.011.762-.036a59.439,59.439,0,0,0,40.473-21.424,60.451,60.451,0,0,0,6.09-8.88l41.658,13.517a35.546,35.546,0,1,0,4.175-15.6l-.059.118L325.614,271.2a59.891,59.891,0,0,0-29.075-66.684l11.492-27.162C308.476,177.375,308.918,177.41,309.365,177.41Zm-144.436,155A15.494,15.494,0,0,1,145.6,322.094h0a15.495,15.495,0,1,1,19.331,10.32Zm226.259-50.347a19.554,19.554,0,1,1-13.4,14.58c.011-.032.028-.059.038-.091a7.861,7.861,0,0,0,.256-1.055A19.512,19.512,0,0,1,391.188,282.066Zm22.963-158a7.536,7.536,0,0,1,7.19-5.339,7.525,7.525,0,1,1-2.179,14.725,7.525,7.525,0,0,1-5.011-9.386Zm-109.309,7.019a15.5,15.5,0,1,1-10.32,19.331h0A15.514,15.514,0,0,1,304.842,131.086Z"/><path d="M126.106,142.609a26.268,26.268,0,1,0-25.178,33.936A26.5,26.5,0,0,0,117.7,170.53l55.578,34.724a8,8,0,0,0,8.479-13.569l-55.411-34.62A26.085,26.085,0,0,0,126.106,142.609ZM96.12,159.321a10.281,10.281,0,0,1,1.852-18.906,10.22,10.22,0,0,1,7.831.767,10.281,10.281,0,0,1,4.228,13.911c-.018.034-.04.065-.059.1a7.929,7.929,0,0,0-.531.745c-.1.161-.186.328-.274.493a10.26,10.26,0,0,1-13.047,2.891Z"/><path d="M33.3,363.9a8,8,0,0,0,8-8V95.8a7.852,7.852,0,0,1,7.844-7.844h413.72a7.853,7.853,0,0,1,7.844,7.844V355.9a8,8,0,0,0,16,0V95.8a23.871,23.871,0,0,0-23.844-23.844H49.143A23.871,23.871,0,0,0,25.3,95.8V355.9A8,8,0,0,0,33.3,363.9Z"/><path d="M510.046,375.24A8,8,0,0,0,504,372.479H293.254a8.006,8.006,0,0,0-3.151.646c-.175.075-17.654,7.485-34.1,7.485a63.533,63.533,0,0,1-28.321-7.066,8,8,0,0,0-3.989-1.065H8a8,8,0,0,0-7.919,9.139l3.731,25.934c.014.1.031.2.049.3a39.271,39.271,0,0,0,38.633,32.192H469.506a39.271,39.271,0,0,0,38.633-32.192c.018-.1.035-.2.049-.3l3.731-25.934A8,8,0,0,0,510.046,375.24Zm-17.671,29.87a23.273,23.273,0,0,1-22.869,18.938H42.494A23.273,23.273,0,0,1,19.625,405.11l-2.392-16.631H221.719A79.924,79.924,0,0,0,256,396.61c16.751,0,33.628-6.089,38.816-8.131H494.767Z"/><text x="0" y="527" fill="#000000" font-size="5px" font-weight="bold" font-family="'Helvetica Neue', Helvetica, Arial-Unicode, Arial, Sans-serif">Created by Koson Rattanaphan</text><text x="0" y="532" fill="#000000" font-size="5px" font-weight="bold" font-family="'Helvetica Neue', Helvetica, Arial-Unicode, Arial, Sans-serif">from the Noun Project</text></svg>